<?xml version="1.0" encoding="UTF-8"?>
<svg version="1.1" xmlns="http://www.w3.org/2000/svg" width="271" height="287">
<path d="M0 0 C0.74634705 0.00304138 1.49269409 0.00608276 2.26165771 0.00921631 C13.66793327 0.07789388 24.3742 0.8020187 35.25 4.4375 C36.24773437 4.75098389 36.24773437 4.75098389 37.265625 5.07080078 C54.93941072 10.69926069 69.39601208 20.26328238 83.25 32.4375 C84.04019531 33.12457031 84.83039063 33.81164063 85.64453125 34.51953125 C105.91265268 53.46671605 119.03828266 83.50706018 120.3762207 111.03442383 C121.32526325 145.60668791 112.45715045 176.52155854 88.4140625 202.17578125 C87.69992188 202.92214844 86.98578125 203.66851562 86.25 204.4375 C85.63898438 205.11167969 85.02796875 205.78585938 84.3984375 206.48046875 C65.98788448 226.10533484 37.21536482 239.56057757 10.25 240.4375 C9.23244629 240.47617187 9.23244629 240.47617187 8.19433594 240.515625 C-26.3085368 241.67392539 -56.88879477 231.27214012 -82.40625 207.65234375 C-83.56640625 206.55599609 -83.56640625 206.55599609 -84.75 205.4375 C-85.4615625 204.77878906 -86.173125 204.12007812 -86.90625 203.44140625 C-91.98714615 198.58524204 -95.92998719 193.32215868 -99.75 187.4375 C-100.41128906 186.4475 -101.07257813 185.4575 -101.75390625 184.4375 C-117.88324041 159.4630471 -123.52063433 128.09982434 -118.5 98.84765625 C-111.50448096 67.03990563 -94.66676898 37.70625446 -66.875 19.6875 C-46.15263409 6.73530871 -24.40145009 -0.21141805 0 0 Z M-4.75 22.4375 C-7.68841629 29.31369244 -9.930206 36.18589665 -11.75 43.4375 C-11.09 43.4375 -10.43 43.4375 -9.75 43.4375 C-9.09 44.0975 -8.43 44.7575 -7.75 45.4375 C-3.6776798 40.41924715 -3.21987442 36.9191958 -3.5 30.5625 C-3.51804687 29.77875 -3.53609375 28.995 -3.5546875 28.1875 C-3.60144852 26.27029811 -3.67317997 24.35373285 -3.75 22.4375 C-4.08 22.4375 -4.41 22.4375 -4.75 22.4375 Z M-12.75 43.4375 C-13.08 45.0875 -13.41 46.7375 -13.75 48.4375 C-13.09 48.1075 -12.43 47.7775 -11.75 47.4375 C-12.08 46.1175 -12.41 44.7975 -12.75 43.4375 Z M-14.75 48.4375 C-13.75 50.4375 -13.75 50.4375 -13.75 50.4375 Z M-15.75 50.4375 C-14.75 52.4375 -14.75 52.4375 -14.75 52.4375 Z M-16.75 52.4375 C-15.75 54.4375 -15.75 54.4375 -15.75 54.4375 Z M-48.75 129.4375 C-49.74 130.0975 -50.73 130.7575 -51.75 131.4375 C-49.275 133.4175 -49.275 133.4175 -46.75 135.4375 C-46.42 134.1175 -46.09 132.7975 -45.75 131.4375 C-46.74 130.7775 -47.73 130.1175 -48.75 129.4375 Z " fill="#067FC2" transform="translate(135.75,23.5625)"/>
<path d="M0 0 C0.99 0 1.98 0 3 0 C3.16221221 10.73527442 3.28658003 21.47025721 3.3626852 32.20650768 C3.39921307 37.19190451 3.44875448 42.17646278 3.52807617 47.16137695 C3.60415312 51.97250411 3.64599365 56.78282499 3.6641407 61.59450722 C3.67707193 63.42983 3.70232487 65.26510878 3.7401104 67.10008812 C3.79096488 69.67210461 3.79792294 72.24079381 3.79467773 74.81323242 C3.81984467 75.57136734 3.8450116 76.32950226 3.87094116 77.11061096 C3.82954096 80.14484939 3.64477915 82.3588963 1.43873787 84.55236244 C-0.45982361 85.89839172 -0.45982361 85.89839172 -2.35630703 87.01706409 C-4.64644961 88.38657982 -5.335478 89.41574777 -6 92 C-6.46457914 96.8006511 -6.47909117 99.04181765 -4.3125 103.375 C-1.94805921 106.4569269 -1.94805921 106.4569269 3 108 C3 137.04 3 166.08 3 196 C2.01 196 1.02 196 0 196 C-0.268125 195.06542969 -0.53625 194.13085938 -0.8125 193.16796875 C-8.65226228 166.58557725 -21.21413121 142.50293794 -38.1171875 120.59375 C-39.6960027 118.41878466 -41.00453562 116.48866095 -42 114 C-41.625 111.75 -41.625 111.75 -41 110 C-41.66 109.67 -42.32 109.34 -43 109 C-43.61230469 109.22042969 -44.22460938 109.44085938 -44.85546875 109.66796875 C-47 110 -47 110 -49.17578125 108.48828125 C-49.88089844 107.77027344 -50.58601563 107.05226563 -51.3125 106.3125 C-52.03050781 105.60738281 -52.74851562 104.90226562 -53.48828125 104.17578125 C-55 102 -55 102 -55.0390625 100.09765625 C-53.52150916 97.03402414 -51.32542043 94.65042073 -49.0625 92.125 C-34.31311257 75.07812564 -22.20877088 55.45847554 -13.33203125 34.73046875 C-12.08437673 32.17295992 -11.0270862 30.90784584 -9 29 C-7.80400932 26.96767758 -7.80400932 26.96767758 -6.8125 24.8125 C-6.46832031 24.09707031 -6.12414062 23.38164063 -5.76953125 22.64453125 C-5.38861328 21.83048828 -5.38861328 21.83048828 -5 21 C-4.01 21.33 -3.02 21.66 -2 22 C0.63172097 19.35442787 1.0021093 17.97544174 1.328125 14.1796875 C1.31755341 12.74459431 1.29106031 11.30954462 1.25 9.875 C1.24226563 8.78251953 1.24226563 8.78251953 1.234375 7.66796875 C1.23515194 3.70348632 1.23515194 3.70348632 0 0 Z " fill="#D8DADD" transform="translate(130,45)"/>
<path d="M0 0 C2 3.75 2 3.75 2 6 C2.66 6.33 3.32 6.66 4 7 C5.14555496 10.73778219 4.91832364 13.53680747 4.0625 17.3125 C3.86785156 18.19550781 3.67320312 19.07851562 3.47265625 19.98828125 C3.31667969 20.65214844 3.16070312 21.31601563 3 22 C4.97536745 21.65213292 4.97536745 21.65213292 7 21 C7.33 20.34 7.66 19.68 8 19 C11 23.625 11 23.625 11 27 C10.34 27 9.68 27 9 27 C9.165 27.928125 9.33 28.85625 9.5 29.8125 C10 33 10 33 10 36 C11.98 36.66 13.96 37.32 16 38 C16.33 37.34 16.66 36.68 17 36 C17.47985967 37.27057182 17.9588593 38.54146848 18.4375 39.8125 C18.70433594 40.52019531 18.97117188 41.22789063 19.24609375 41.95703125 C19.86225186 43.62672396 20.43719235 45.31157704 21 47 C20.34 47.99 19.68 48.98 19 50 C19.66 50.33 20.32 50.66 21 51 C21 51.99 21 52.98 21 54 C22.32 54 23.64 54 25 54 C26.125 57.75 26.125 57.75 25 60 C27.31 60 29.62 60 32 60 C32.25652344 60.56847656 32.51304687 61.13695312 32.77734375 61.72265625 C35.62952936 67.47504406 38.70910936 70.78519209 44.01171875 74.39453125 C46.13819634 76.11158879 46.98270844 77.4921315 48 80 C47.01 80.33 46.02 80.66 45 81 C44.62875 80.05125 44.2575 79.1025 43.875 78.125 C42.26004095 74.74446192 42.26004095 74.74446192 38.8125 73.625 C37.884375 73.41875 36.95625 73.2125 36 73 C35.67 74.65 35.34 76.3 35 78 C37.97 77.505 37.97 77.505 41 77 C41.66 79.97 42.32 82.94 43 86 C43.99 85.34 44.98 84.68 46 84 C48.1875 84.375 48.1875 84.375 50 85 C48.81887248 90.47613669 47.47335903 93.3094788 43 97 C42.34 97 41.68 97 41 97 C40.9175 97.61875 40.835 98.2375 40.75 98.875 C40 101 40 101 38.0625 101.9375 C35.22577597 103.39884268 35.15582786 105.0764354 34 108 C32.33333333 109.66666667 30.66666667 111.33333333 29 113 C28.13880866 115.17346568 28.13880866 115.17346568 28 117 C27.34 117 26.68 117 26 117 C25.75765625 117.66902344 25.5153125 118.33804688 25.265625 119.02734375 C23.69617877 122.71360479 21.7494398 126.0958096 19.75 129.5625 C12.7437466 141.30355074 12.7437466 141.30355074 8 154 C6.77654724 156.81063472 5.46581764 159.57233941 4.15625 162.34375 C2.93691523 164.86976117 2.93691523 164.86976117 2.59375 167.21875 C2 169 2 169 -2 171 C-2.495 160.605 -2.495 160.605 -3 150 C-3.33 150 -3.66 150 -4 150 C-4 131.85 -4 113.7 -4 95 C-1.03 94.01 -1.03 94.01 2 93 C5.00863622 88.68762142 5.4711134 85.18224738 5 80 C3.89730325 75.9567786 2.51254541 74.23525617 -1 72 C-1.99 71.34 -2.98 70.68 -4 70 C-3.89600136 68.82258492 -3.89600136 68.82258492 -3.78990173 67.62138367 C-3.12652777 59.66034304 -2.82769993 51.75580164 -2.75390625 43.76953125 C-2.72103006 41.31444873 -2.68781759 38.85937068 -2.65429688 36.40429688 C-2.60656227 32.58132427 -2.56195131 28.75837745 -2.52319336 24.93530273 C-2.48370984 21.21321284 -2.43218809 17.49144552 -2.37890625 13.76953125 C-2.3704921 12.61757767 -2.36207794 11.46562408 -2.35340881 10.27876282 C-2.33676682 9.21973251 -2.32012482 8.16070221 -2.30297852 7.06958008 C-2.29267105 6.13616287 -2.28236359 5.20274567 -2.27174377 4.24104309 C-2 2 -2 2 0 0 Z " fill="#7A7A7A" transform="translate(143,58)"/>
<path d="M0 0 C0.33 0 0.66 0 1 0 C1.33 21.78 1.66 43.56 2 66 C3.98 66.99 5.96 67.98 8 69 C10.6540189 71.10491154 11.53501086 72.65207821 12 76 C12.57114578 82.05414528 11.61051349 85.24932435 8 90 C5.03 90.495 5.03 90.495 2 91 C2.33 104.86 2.66 118.72 3 133 C3.33 133 3.66 133 4 133 C4.33 143.89 4.66 154.78 5 166 C5.99 165.01 5.99 165.01 7 164 C6.95875 163.21625 6.9175 162.4325 6.875 161.625 C7.04317139 158.09340084 8.4831273 157.36882136 11 155 C12.41711236 152.23663091 13.01162115 150.48808827 12.9375 147.375 C13 145 13 145 14.3359375 143.68359375 C16.43734455 141.5575223 17.41134434 139.38973218 18.6875 136.6875 C21.04944091 131.83338585 23.56257922 127.11582971 26.25 122.4375 C26.59119873 121.84219482 26.93239746 121.24688965 27.28393555 120.63354492 C28.7866195 118.03140904 30.33238962 115.50141556 32 113 C32.66 113 33.32 113 34 113 C34.0825 112.2575 34.165 111.515 34.25 110.75 C35.15694983 107.4245173 36.51859699 106.33543813 39 104 C39.495 103.154375 39.99 102.30875 40.5 101.4375 C42.07675129 98.87527916 43.60832637 97.753894 46 96 C46.495 94.515 46.495 94.515 47 93 C47.66 93 48.32 93 49 93 C49.495 91.515 49.495 91.515 50 90 C52.0625 88.8125 52.0625 88.8125 54 88 C53.979375 87.030625 53.95875 86.06125 53.9375 85.0625 C54 82 54 82 55 81 C53.02 81.33 51.04 81.66 49 82 C48.01 77.545 48.01 77.545 47 73 C44.03 73.495 44.03 73.495 41 74 C40.67 72.35 40.34 70.7 40 69 C40.66 69 41.32 69 42 69 C42.33 68.34 42.66 67.68 43 67 C43.4125 67.45375 43.825 67.9075 44.25 68.375 C45.91435498 70.0922331 45.91435498 70.0922331 48.0625 70.9375 C50.45578707 72.24994775 51.00405747 73.51014367 52 76 C52 72.60823894 49.29018266 70.31169002 47.25 67.75 C43.97201486 63.60487344 40.87649397 59.435715 38 55 C38.495 54.01 38.495 54.01 39 53 C42.19366355 55.91992096 44.35519029 58.50620012 46.4375 62.3125 C47.58314474 64.38487311 47.58314474 64.38487311 49 66 C52.2140814 66.67012422 52.2140814 66.67012422 55 66 C55 66.99 55 67.98 55 69 C54.34 69 53.68 69 53 69 C53 69.66 53 70.32 53 71 C53.66 71 54.32 71 55 71 C55 72.32 55 73.64 55 75 C55.7425 74.979375 56.485 74.95875 57.25 74.9375 C60 76 60 76 61.22265625 78.0703125 C62.22346389 80.3588977 63.15065771 82.65126015 64 85 C63.38125 85.5775 62.7625 86.155 62.125 86.75 C59.94240783 88.80950544 59.94240783 88.80950544 59.0625 91.125 C58 93 58 93 55.6875 93.875 C52.04106508 95.40141462 50.33006655 97.94615256 48 101 C47.41347656 101.71285156 46.82695312 102.42570312 46.22265625 103.16015625 C35.40240156 115.27609605 35.40240156 115.27609605 28.625 129.25 C27.60453752 133.7400349 25.20833824 137.46633993 22.375 141.0625 C20.84792361 143.00679772 20.84792361 143.00679772 20.140625 145.69140625 C18.88501407 149.33353796 17.23316503 152.50277458 15.375 155.875 C14.74335938 157.02742187 14.11171875 158.17984375 13.4609375 159.3671875 C12.73777344 160.67042969 12.73777344 160.67042969 12 162 C12.66 162.33 13.32 162.66 14 163 C13.34 163.33 12.68 163.66 12 164 C11.27118911 165.97820098 10.62486441 167.98654801 10 170 C9.39446153 171.94367035 8.76802674 173.88090795 8.125 175.8125 C7.66480469 177.24529297 7.66480469 177.24529297 7.1953125 178.70703125 C6 181 6 181 4.0078125 181.8515625 C1.78190347 182.01612387 0.11620118 181.68020752 -2 181 C-2.66 181.99 -3.32 182.98 -4 184 C-7 183 -7 183 -9 181 C-9.4140625 178.3984375 -9.4140625 178.3984375 -9.625 175.375 C-9.69976562 174.37210938 -9.77453125 173.36921875 -9.8515625 172.3359375 C-9.90054688 171.56507813 -9.94953125 170.79421875 -10 170 C-10.66 170 -11.32 170 -12 170 C-12.66 166.37 -13.32 162.74 -14 159 C-14.66 159 -15.32 159 -16 159 C-16.33 156.03 -16.66 153.06 -17 150 C-14.52396487 153.7140527 -13.06128777 157.54600418 -11.4375 161.6875 C-11.12103516 162.46544922 -10.80457031 163.24339844 -10.47851562 164.04492188 C-8.50023252 169.08093344 -7.4500711 173.60531217 -7 179 C-6.01 179 -5.02 179 -4 179 C-4 149.96 -4 120.92 -4 91 C-5.65 90.67 -7.3 90.34 -9 90 C-12.93468099 85.73742893 -14.35300727 82.96316651 -14.2890625 77.1015625 C-13.82122304 73.70024318 -12.15733871 71.58880645 -10 69 C-7 67 -7 67 0 68 C0 45.56 0 23.12 0 0 Z " fill="#1A5E99" transform="translate(137,62)"/>
<path d="M0 0 C7.52449159 2.15235457 7.52449159 2.15235457 9.4375 5.5625 C9.623125 6.366875 9.80875 7.17125 10 8 C10.33 8.66 10.66 9.32 11 10 C10.66436035 10.61077393 10.3287207 11.22154785 9.98291016 11.85083008 C8.78142747 13.93762778 8.78142747 13.93762778 9.38037109 16.11206055 C9.82243896 17.23801636 9.82243896 17.23801636 10.2734375 18.38671875 C10.59932861 19.23379395 10.92521973 20.08086914 11.26098633 20.95361328 C11.62861084 21.8557959 11.99623535 22.75797852 12.375 23.6875 C12.74713623 24.62577637 13.11927246 25.56405273 13.50268555 26.53076172 C21.71304363 46.95534793 32.04551542 65.81774226 44.78515625 83.77734375 C46.42954126 86.16996744 47.82916903 88.36066917 49 91 C41.90178571 86.58035714 41.90178571 86.58035714 40.5 82.25 C40.005 81.1775 39.51 80.105 39 79 C35.41136476 77.9384058 35.41136476 77.9384058 32 78 C31.67 76.35 31.34 74.7 31 73 C30.01 72.67 29.02 72.34 28 72 C28 71.01 28 70.02 28 69 C27.01 68.67 26.02 68.34 25 68 C25.3609375 67.42636719 25.721875 66.85273437 26.09375 66.26171875 C27.22196328 64.0626724 27.22196328 64.0626724 26.53125 61.89453125 C25.47423208 59.76047613 24.48690987 57.86508348 23 56 C19.94727535 55.10169161 19.94727535 55.10169161 17 55 C15 52 15 52 15.375 49.4375 C15.684375 48.2309375 15.684375 48.2309375 16 47 C16 46.34 16 45.68 16 45 C16.66 45 17.32 45 18 45 C17.01 42.69 16.02 40.38 15 38 C13.35 38.66 11.7 39.32 10 40 C9.90961901 34.84828377 10.15318867 30.08086796 11 25 C10.01 24.67 9.02 24.34 8 24 C7.505 21.525 7.505 21.525 7 19 C6.11301703 22.0637676 5.85611336 24.83625648 5.81054688 28.02124023 C5.79382935 29.02005722 5.77711182 30.01887421 5.7598877 31.04795837 C5.74631226 32.12396805 5.73273682 33.19997772 5.71875 34.30859375 C5.70034058 35.42629654 5.68193115 36.54399933 5.66296387 37.6955719 C5.60423886 41.27616118 5.55149317 44.85679988 5.5 48.4375 C5.4482809 51.98605882 5.39508413 55.53456181 5.33703613 59.08302307 C5.30097762 61.28913154 5.26842641 63.49530137 5.2401123 65.70152283 C5.11865366 73.16438852 4.64594493 80.56469629 4 88 C3.34 88 2.68 88 2 88 C1.505 88.99 1.505 88.99 1 90 C-0.65 89.67 -2.3 89.34 -4 89 C-3.67 61.28 -3.34 33.56 -3 5 C-3.99 5 -4.98 5 -6 5 C-6.0825 6.258125 -6.165 7.51625 -6.25 8.8125 C-6.86302038 14.55842241 -8.8572831 19.66812307 -11 25 C-13 21.25 -13 21.25 -13 19 C-12.34 19 -11.68 19 -11 19 C-11.04640625 18.34773438 -11.0928125 17.69546875 -11.140625 17.0234375 C-11.32593496 12.53628919 -11.266886 9.58509624 -9.375 5.4375 C-6.54759074 2.53568523 -4.94831878 2.35096167 -1 2 C-0.67 1.34 -0.34 0.68 0 0 Z " fill="#1F8CBD" transform="translate(136,40)"/>
<path d="M0 0 C0.33 0 0.66 0 1 0 C1.33 21.78 1.66 43.56 2 66 C3.98 66.99 5.96 67.98 8 69 C10.6540189 71.10491154 11.53501086 72.65207821 12 76 C12.57355291 82.07966085 11.57337974 85.20414824 8 90 C4.75 91.4375 4.75 91.4375 2 92 C0.93719496 98.29645003 0.67888105 104.56266607 0.4375 110.9375 C0.39431641 112.00291016 0.35113281 113.06832031 0.30664062 114.16601562 C0.20125511 116.77723443 0.09912912 119.38853746 0 122 C-0.99 122.495 -0.99 122.495 -2 123 C-2.33 135.87 -2.66 148.74 -3 162 C-3.33 162 -3.66 162 -4 162 C-4 138.57 -4 115.14 -4 91 C-5.65 90.67 -7.3 90.34 -9 90 C-12.93468099 85.73742893 -14.35300727 82.96316651 -14.2890625 77.1015625 C-13.82122304 73.70024318 -12.15733871 71.58880645 -10 69 C-7 67 -7 67 0 68 C0 45.56 0 23.12 0 0 Z " fill="#0F7FBB" transform="translate(137,62)"/>
<path d="M0 0 C1.11304001 0.00256805 1.11304001 0.00256805 2.24856567 0.00518799 C28.75902837 0.11018558 28.75902837 0.11018558 38.25 6.4375 C34.50050945 7.20444125 31.909341 7.49988932 28.25 6.4375 C27.38375 6.458125 26.5175 6.47875 25.625 6.5 C23.25 6.4375 23.25 6.4375 21.25 4.4375 C18.59462628 3.87229997 15.95855287 3.69961802 13.25 3.4375 C12.92 4.0975 12.59 4.7575 12.25 5.4375 C11.60160156 5.11136719 10.95320313 4.78523438 10.28515625 4.44921875 C6.33380938 3.13210313 2.81973779 3.18260728 -1.3125 3.25 C-2.06724609 3.25064453 -2.82199219 3.25128906 -3.59960938 3.25195312 C-7.14541407 3.28006964 -10.33945316 3.48577468 -13.75 4.4375 C-13.255 5.4275 -13.255 5.4275 -12.75 6.4375 C-14.91874252 5.93146008 -16.74967627 5.43766187 -18.75 4.4375 C-19.08 5.0975 -19.41 5.7575 -19.75 6.4375 C-22.72 6.4375 -25.69 6.4375 -28.75 6.4375 C-29.08 7.0975 -29.41 7.7575 -29.75 8.4375 C-31.1421875 8.375625 -31.1421875 8.375625 -32.5625 8.3125 C-35.90809719 8.16613661 -35.90809719 8.16613661 -38.75 10.4375 C-39.48343428 13.50306598 -39.48343428 13.50306598 -39.75 16.4375 C-42.625 16.5625 -42.625 16.5625 -45.75 16.4375 C-46.41 15.7775 -47.07 15.1175 -47.75 14.4375 C-52.07061127 15.59668839 -55.18864227 17.31070567 -58.7421875 20.01171875 C-61.90097393 22.25482585 -65.31237557 24.05686191 -68.7109375 25.91015625 C-71.11708465 27.71246187 -71.15489542 28.60338807 -71.75 31.4375 C-73.74571323 32.11689174 -75.74594773 32.78311559 -77.75 33.4375 C-78.91666667 35.35416667 -78.91666667 35.35416667 -79.75 37.4375 C-82.11451679 39.49691785 -83.7462485 40.4362495 -86.75 41.4375 C-87.97969878 44.94940809 -87.97969878 44.94940809 -88.75 48.4375 C-89.348125 48.458125 -89.94625 48.47875 -90.5625 48.5 C-93.083742 49.31272259 -93.083742 49.31272259 -94.375 52.4375 C-95.97893601 56.65330995 -96.89805786 61.01742374 -97.75 65.4375 C-98.4925 65.23125 -99.235 65.025 -100 64.8125 C-103.07330841 64.39341249 -104.17786866 64.81800989 -106.75 66.4375 C-96.89729038 40.49203132 -73.62256669 21.73213554 -49.31640625 10 C-33.32048548 2.99192956 -17.36772244 -0.14199887 0 0 Z " fill="#37CAEE" transform="translate(135.75,23.5625)"/>
<path d="M0 0 C4 2 4 2 4.9855957 3.90087891 C5.32723755 5.05209229 5.32723755 5.05209229 5.67578125 6.2265625 C5.94237549 7.08523926 6.20896973 7.94391602 6.48364258 8.82861328 C6.75716553 9.7514209 7.03068848 10.67422852 7.3125 11.625 C15.22187632 36.67242057 27.54724979 59.96494271 43.56640625 80.79296875 C45 83 45 83 45 86 C38.97321429 81.58035714 38.97321429 81.58035714 37.5625 77.25 C37.046875 76.1775 36.53125 75.105 36 74 C32.41136476 72.9384058 32.41136476 72.9384058 29 73 C28.67 71.35 28.34 69.7 28 68 C26.515 67.505 26.515 67.505 25 67 C25 66.01 25 65.02 25 64 C23.515 63.505 23.515 63.505 22 63 C22.3609375 62.42636719 22.721875 61.85273437 23.09375 61.26171875 C24.22196328 59.0626724 24.22196328 59.0626724 23.53125 56.89453125 C22.47423208 54.76047613 21.48690987 52.86508348 20 51 C16.94727535 50.10169161 16.94727535 50.10169161 14 50 C12 47 12 47 12.375 44.4375 C12.58125 43.633125 12.7875 42.82875 13 42 C13 41.34 13 40.68 13 40 C13.66 40 14.32 40 15 40 C13.515 36.535 13.515 36.535 12 33 C10.35 33.66 8.7 34.32 7 35 C6.90961901 29.84828377 7.15318867 25.08086796 8 20 C7.01 19.67 6.02 19.34 5 19 C4.67 17.35 4.34 15.7 4 14 C3.11301703 17.0637676 2.85611336 19.83625648 2.81054688 23.02124023 C2.79382935 24.02005722 2.77711182 25.01887421 2.7598877 26.04795837 C2.74631226 27.12396805 2.73273682 28.19997772 2.71875 29.30859375 C2.69113586 30.98514793 2.69113586 30.98514793 2.66296387 32.6955719 C2.60423886 36.27616118 2.55149317 39.85679988 2.5 43.4375 C2.4482809 46.98605882 2.39508413 50.53456181 2.33703613 54.08302307 C2.30097762 56.28913154 2.26842641 58.49530137 2.2401123 60.70152283 C2.11865366 68.16438852 1.64594493 75.56469629 1 83 C0.67 83 0.34 83 0 83 C0 55.61 0 28.22 0 0 Z " fill="#BADFED" transform="translate(139,45)"/>
<path d="M0 0 C0.33 0 0.66 0 1 0 C1.16617485 29.3464782 0.69425761 58.66207669 0 88 C-0.639375 88.28875 -1.27875 88.5775 -1.9375 88.875 C-4.15206079 89.82823451 -4.15206079 89.82823451 -5 92 C-8 91 -8 91 -10 89 C-10.4140625 86.3984375 -10.4140625 86.3984375 -10.625 83.375 C-10.69976562 82.37210937 -10.77453125 81.36921875 -10.8515625 80.3359375 C-10.90054688 79.56507813 -10.94953125 78.79421875 -11 78 C-11.66 78 -12.32 78 -13 78 C-13.66 74.37 -14.32 70.74 -15 67 C-15.66 67 -16.32 67 -17 67 C-17.33 64.03 -17.66 61.06 -18 58 C-15.52396487 61.7140527 -14.06128777 65.54600418 -12.4375 69.6875 C-12.12103516 70.46544922 -11.80457031 71.24339844 -11.47851562 72.04492188 C-9.50023252 77.08093344 -8.4500711 81.60531217 -8 87 C-7.01 87 -6.02 87 -5 87 C-4.67 60.27 -4.34 33.54 -4 6 C-3.67 6 -3.34 6 -3 6 C-2.67 13.92 -2.34 21.84 -2 30 C-1.71198342 22.746125 -1.71198342 22.746125 -1.43188477 15.49194336 C-1.21437911 10.26123135 -0.87160857 5.16373144 0 0 Z " fill="#1664A2" transform="translate(138,154)"/>
<path d="M0 0 C7.84848485 4.66666667 7.84848485 4.66666667 8.9375 7.0625 C9.288125 7.701875 9.63875 8.34125 10 9 C11.32796291 9.35412344 12.66216607 9.68521554 14 10 C16.5870388 12.01214129 17.80578636 13.2425668 18.625 16.4375 C17.84386289 19.64016213 16.29143941 20.69089734 13.7109375 22.6171875 C11.87726254 24.09919877 10.49143918 25.67712989 9 27.5 C7.08684769 29.82992827 5.22145357 31.69179782 2.8125 33.5 C-0.45972278 36.40864247 -1.4305498 38.96427091 -3 43 C-3.99043127 44.00947803 -4.99129944 45.00877693 -6 46 C-7.34214574 48.08291461 -8.57595837 50.21076914 -9.81640625 52.35546875 C-10.20699219 52.89816406 -10.59757812 53.44085938 -11 54 C-11.66 54 -12.32 54 -13 54 C-13.2475 54.66 -13.495 55.32 -13.75 56 C-15.04930605 59.11833452 -16.536483 62.08824679 -18.06640625 65.09765625 C-19.06497697 67.06110447 -19.06497697 67.06110447 -19.9375 69.4375 C-20.9476308 71.8736978 -22.12711686 74.02712941 -23.4375 76.3125 C-25.76046275 80.42551051 -27.50027656 84.52894949 -29 89 C-29.391875 90.155 -29.78375 91.31 -30.1875 92.5 C-30.5896875 93.7375 -30.5896875 93.7375 -31 95 C-31.66 95 -32.32 95 -33 95 C-33.33 95.99 -33.66 96.98 -34 98 C-35 97 -35 97 -35.3125 94.6875 C-34.90509393 91.1838078 -33.52170709 90.37337137 -31 88 C-29.58288764 85.23663091 -28.98837885 83.48808827 -29.0625 80.375 C-29 78 -29 78 -27.6640625 76.68359375 C-25.56265545 74.5575223 -24.58865566 72.38973218 -23.3125 69.6875 C-20.95055909 64.83338585 -18.43742078 60.11582971 -15.75 55.4375 C-15.2382019 54.54454224 -15.2382019 54.54454224 -14.71606445 53.63354492 C-13.2133805 51.03140904 -11.66761038 48.50141556 -10 46 C-9.34 46 -8.68 46 -8 46 C-7.9175 45.2575 -7.835 44.515 -7.75 43.75 C-6.84305017 40.4245173 -5.48140301 39.33543813 -3 37 C-2.505 36.154375 -2.01 35.30875 -1.5 34.4375 C0.07675129 31.87527916 1.60832637 30.753894 4 29 C4.495 27.515 4.495 27.515 5 26 C5.66 26 6.32 26 7 26 C7.495 24.515 7.495 24.515 8 23 C10.0625 21.8125 10.0625 21.8125 12 21 C11.979375 20.030625 11.95875 19.06125 11.9375 18.0625 C12 15 12 15 13 14 C11.02 14.33 9.04 14.66 7 15 C6.34 12.03 5.68 9.06 5 6 C3.02 6.33 1.04 6.66 -1 7 C-1.495 4.525 -1.495 4.525 -2 2 C-1.34 2 -0.68 2 0 2 C0 1.34 0 0.68 0 0 Z " fill="#445C70" transform="translate(179,129)"/>
<path d="M0 0 C1.60386882 3.20773764 0.98422986 5.05102103 -0.0625 8.4375 C-1.26147328 11.74517061 -1.26147328 11.74517061 -0.4140625 13.98828125 C0 16 0 16 -0.92578125 17.921875 C-1.38339844 18.52515625 -1.84101562 19.1284375 -2.3125 19.75 C-2.98732422 20.67039063 -2.98732422 20.67039063 -3.67578125 21.609375 C-4.11277344 22.06828125 -4.54976562 22.5271875 -5 23 C-5.66 23 -6.32 23 -7 23 C-7 23.66 -7 24.32 -7 25 C-5.68 25.33 -4.36 25.66 -3 26 C-6.465 28.475 -6.465 28.475 -10 31 C-9.01 31.99 -8.02 32.98 -7 34 C-8.65 34.66 -10.3 35.32 -12 36 C-13.36877116 34.76600937 -14.71969166 33.51219377 -16.0625 32.25 C-16.81660156 31.55390625 -17.57070312 30.8578125 -18.34765625 30.140625 C-20 28 -20 28 -20.0625 26.11328125 C-18.49242308 22.99044443 -16.24703134 20.52588046 -13.9375 17.9375 C-8.92603577 12.18511777 -4.37550354 6.25609246 0 0 Z " fill="#E1E2E3" transform="translate(95,119)"/>
<path d="M0 0 C-4.81420895 3.55832835 -9.70272301 6.60526134 -14.9609375 9.47265625 C-17.36708465 11.27496187 -17.40489542 12.16588807 -18 15 C-19.99571323 15.67939174 -21.99594773 16.34561559 -24 17 C-25.16666667 18.91666667 -25.16666667 18.91666667 -26 21 C-28.36451679 23.05941785 -29.9962485 23.9987495 -33 25 C-34.22969878 28.51190809 -34.22969878 28.51190809 -35 32 C-35.598125 32.020625 -36.19625 32.04125 -36.8125 32.0625 C-39.333742 32.87522259 -39.333742 32.87522259 -40.625 36 C-42.22893601 40.21580995 -43.14805786 44.57992374 -44 49 C-44.7425 48.79375 -45.485 48.5875 -46.25 48.375 C-49.32330841 47.95591249 -50.42786866 48.38050989 -53 50 C-45.34048525 29.82994449 -27.08020167 9.99439135 -8 0 C-2.59247136 -1.29623568 -2.59247136 -1.29623568 0 0 Z " fill="#39CEEE" transform="translate(82,40)"/>
<path d="M0 0 C0.67368069 9.5999499 -6.88085139 17.3271444 -12.72265625 24.40234375 C-21.23295257 34.10962857 -30.2666034 41.86177022 -41 49 C-42.28390625 49.87398437 -42.28390625 49.87398437 -43.59375 50.765625 C-45.3468686 51.92166697 -47.16596542 52.97717302 -49 54 C-49.66 53.67 -50.32 53.34 -51 53 C-49.5 50 -49.5 50 -48 47 C-46.33871537 46.64080332 -44.67099977 46.31088368 -43 46 C-40.76591887 45.00916033 -40.76591887 45.00916033 -39 44 C-39 43.01 -39 42.02 -39 41 C-38.34 41 -37.68 41 -37 41 C-37.33 39.68 -37.66 38.36 -38 37 C-33.125 35 -33.125 35 -32 35 C-31.67 35.66 -31.34 36.32 -31 37 C-30.34 37 -29.68 37 -29 37 C-29 36.34 -29 35.68 -29 35 C-28.360625 34.7525 -27.72125 34.505 -27.0625 34.25 C-26.381875 33.8375 -25.70125 33.425 -25 33 C-24.87625 32.360625 -24.7525 31.72125 -24.625 31.0625 C-24.315625 30.0415625 -24.315625 30.0415625 -24 29 C-23.01 28.525625 -22.02 28.05125 -21 27.5625 C-17.75674092 26.31845769 -17.75674092 26.31845769 -17.125 23.3125 C-17.08375 22.549375 -17.0425 21.78625 -17 21 C-16.01 20.67 -15.02 20.34 -14 20 C-14.99 18.35 -15.98 16.7 -17 15 C-16.01 15 -15.02 15 -14 15 C-11.39719432 14.67958603 -11.39719432 14.67958603 -9 14 C-8.67 13.34 -8.34 12.68 -8 12 C-7.01 12 -6.02 12 -5 12 C-5.0825 10.7625 -5.165 9.525 -5.25 8.25 C-5.26762779 4.93597596 -5.18469915 4.23832148 -3.0625 1.5 C-1 0 -1 0 0 0 Z " fill="#314B97" transform="translate(241,197)"/>
<path d="M0 0 C7.52449159 2.15235457 7.52449159 2.15235457 9.4375 5.5625 C9.623125 6.366875 9.80875 7.17125 10 8 C10.33 8.66 10.66 9.32 11 10 C10.34 10.66 9.68 11.32 9 12 C8.13375 10.515 8.13375 10.515 7.25 9 C6.5075 8.01 5.765 7.02 5 6 C3.68 6 2.36 6 1 6 C0.67 8.64 0.34 11.28 0 14 C-0.33 14 -0.66 14 -1 14 C-1.33 38.75 -1.66 63.5 -2 89 C-2.66 88.67 -3.32 88.34 -4 88 C-3.67 60.61 -3.34 33.22 -3 5 C-3.99 5 -4.98 5 -6 5 C-6.0825 6.258125 -6.165 7.51625 -6.25 8.8125 C-6.86302038 14.55842241 -8.8572831 19.66812307 -11 25 C-13 21.25 -13 21.25 -13 19 C-12.34 19 -11.68 19 -11 19 C-11.04640625 18.34773438 -11.0928125 17.69546875 -11.140625 17.0234375 C-11.32593496 12.53628919 -11.266886 9.58509624 -9.375 5.4375 C-6.54759074 2.53568523 -4.94831878 2.35096167 -1 2 C-0.67 1.34 -0.34 0.68 0 0 Z " fill="#45A6CB" transform="translate(136,40)"/>
<path d="M0 0 C0.66 0 1.32 0 2 0 C2 14.19 2 28.38 2 43 C1.01 43 0.02 43 -1 43 C-1.268125 42.06542969 -1.53625 41.13085938 -1.8125 40.16796875 C-4.86866038 29.82106421 -8.76827213 19.98328231 -13.08300781 10.10107422 C-14.40415651 7.07396939 -15.70138283 4.03682835 -17 1 C-16.01 1 -15.02 1 -14 1 C-14 1.66 -14 2.32 -14 3 C-13.34 3 -12.68 3 -12 3 C-11.67 4.65 -11.34 6.3 -11 8 C-10.34 8 -9.68 8 -9 8 C-9 8.66 -9 9.32 -9 10 C-8.01 10.33 -7.02 10.66 -6 11 C-6.226875 11.680625 -6.45375 12.36125 -6.6875 13.0625 C-7.11133962 17.04659243 -5.69185181 19.42108272 -4 23 C-3.64141484 24.32676508 -3.2981424 25.65835921 -3 27 C-2.67 27.66 -2.34 28.32 -2 29 C-0.06368829 22.53546326 0.24556441 16.72378423 0.125 10 C0.11597656 9.03449219 0.10695312 8.06898438 0.09765625 7.07421875 C0.07430635 4.71587901 0.04156047 2.35807714 0 0 Z " fill="#91A5BB" transform="translate(131,198)"/>
<path d="M0 0 C0.99 1.32 1.98 2.64 3 4 C2.01 4.495 2.01 4.495 1 5 C0.66073053 7.33247761 0.32759934 9.66585471 0 12 C-0.66 12.66 -1.32 13.32 -2 14 C-2.74731773 16.33536791 -3.40318617 18.62651731 -4 21 C-4.28230469 22.10794922 -4.28230469 22.10794922 -4.5703125 23.23828125 C-5.05425425 25.15700805 -5.52800347 27.07829986 -6 29 C-6.66 29 -7.32 29 -8 29 C-8.85481391 34.89200451 -9.1344851 40.58258171 -9.09765625 46.53125 C-9.0962413 47.40777222 -9.09482635 48.28429443 -9.09336853 49.18737793 C-9.08781768 51.95828821 -9.07527461 54.72911457 -9.0625 57.5 C-9.05747864 59.39062382 -9.05291685 61.28124893 -9.04882812 63.171875 C-9.0378644 67.78128183 -9.02063425 72.39062673 -9 77 C-8.34 77 -7.68 77 -7 77 C-7 79.97 -7 82.94 -7 86 C-6.34 86.33 -5.68 86.66 -5 87 C-5.66 87.99 -6.32 88.98 -7 90 C-7.65353514 87.52264586 -8.29789601 85.04345526 -8.9375 82.5625 C-9.11990234 81.87478516 -9.30230469 81.18707031 -9.49023438 80.47851562 C-16.37869733 53.55088769 -11.28888753 24.9316282 0 0 Z " fill="#68CCE5" transform="translate(28,90)"/>
<path d="M0 0 C0.66 0.33 1.32 0.66 2 1 C-3.1395371 18.98837987 -14.00015132 36.30443608 -24 52 C-24.66 51.67 -25.32 51.34 -26 51 C-26.39801392 47.5173782 -26.12373826 46.19200764 -24.1875 43.1875 C-23.465625 42.465625 -22.74375 41.74375 -22 41 C-21.01 41 -20.02 41 -19 41 C-18.67 38.03 -18.34 35.06 -18 32 C-17.67 32 -17.34 32 -17 32 C-16.67 29.36 -16.34 26.72 -16 24 C-14.02 24 -12.04 24 -10 24 C-10.020625 23.21625 -10.04125 22.4325 -10.0625 21.625 C-10 19 -10 19 -9 17 C-8.34 17 -7.68 17 -7 17 C-6.67 14.03 -6.34 11.06 -6 8 C-5.34 8 -4.68 8 -4 8 C-3.34 7.01 -2.68 6.02 -2 5 C-1.34 5 -0.68 5 0 5 C0 3.35 0 1.7 0 0 Z " fill="#14A0D0" transform="translate(122,64)"/>
<path d="M0 0 C0.99 0 1.98 0 3 0 C3.16221221 10.73527442 3.28658003 21.47025721 3.3626852 32.20650768 C3.39921307 37.19190451 3.44875448 42.17646278 3.52807617 47.16137695 C3.60415312 51.97250411 3.64599365 56.78282499 3.6641407 61.59450722 C3.67707193 63.42983 3.70232487 65.26510878 3.7401104 67.10008812 C3.79096488 69.67210461 3.79792294 72.24079381 3.79467773 74.81323242 C3.81984467 75.57136734 3.8450116 76.32950226 3.87094116 77.11061096 C3.82954096 80.14484939 3.64477915 82.3588963 1.43873787 84.55236244 C-0.45982361 85.89839172 -0.45982361 85.89839172 -2.35630703 87.01706409 C-4.64644961 88.38657982 -5.335478 89.41574777 -6 92 C-6.46612801 96.81665605 -6.52190197 99.01211413 -4.25 103.3125 C-2.28627634 105.65805882 -0.55931192 107.35472805 2 109 C1.505 109.99 1.505 109.99 1 111 C0.34 110.67 -0.32 110.34 -1 110 C-1 109.34 -1 108.68 -1 108 C-1.99 108 -2.98 108 -4 108 C-7.23060081 105.67396742 -8.05800913 102.76796349 -9 99 C-9.47067556 93.72843369 -8.73811096 90.52841428 -6 86 C-4.66666667 84.66666667 -3.33333333 83.33333333 -2 82 C-0.68 82 0.64 82 2 82 C1.89260548 71.60376977 1.77999401 61.20761054 1.66066074 50.81151009 C1.60541902 45.98455238 1.55199702 41.15758863 1.50268555 36.33056641 C1.45506043 31.67509448 1.4027183 27.01969761 1.34705925 22.36431503 C1.32662729 20.5852736 1.30791561 18.80621158 1.29092598 17.02713394 C1.26690057 14.54161359 1.23684354 12.05623576 1.20532227 9.57080078 C1.1995668 8.82993225 1.19381134 8.08906372 1.18788147 7.32574463 C1.19242901 3.53665959 1.19242901 3.53665959 0 0 Z " fill="#CAF2FE" transform="translate(130,45)"/>
<path d="M0 0 C4.33052728 1.5037875 5.4848631 4.18511837 7.5625 8.125 C11.07852056 14.61071353 15.06375575 20.64561316 19.31860352 26.66845703 C19.99234009 27.62534424 19.99234009 27.62534424 20.6796875 28.6015625 C21.07913574 29.16182129 21.47858398 29.72208008 21.89013672 30.29931641 C23.08888965 32.13620883 24.05426539 34.0226531 25 36 C17.90178571 31.58035714 17.90178571 31.58035714 16.5 27.25 C16.005 26.1775 15.51 25.105 15 24 C11.41136476 22.9384058 11.41136476 22.9384058 8 23 C7.67 21.35 7.34 19.7 7 18 C6.01 17.67 5.02 17.34 4 17 C4 16.01 4 15.02 4 14 C3.01 13.67 2.02 13.34 1 13 C1.391875 12.484375 1.78375 11.96875 2.1875 11.4375 C3.43529597 7.69411208 1.65248492 5.43208406 0 2 C0 1.34 0 0.68 0 0 Z " fill="#A3B4BA" transform="translate(160,95)"/>
<path d="M0 0 C0.33 0 0.66 0 1 0 C1.19573608 1.43640171 1.38127816 2.87419504 1.5625 4.3125 C1.66691406 5.11300781 1.77132812 5.91351563 1.87890625 6.73828125 C2 9 2 9 1 12 C1.78375 12.12375 2.5675 12.2475 3.375 12.375 C6 13 6 13 8 15 C8.99 14.67 9.98 14.34 11 14 C13.9878964 20.76208133 12.57183699 27.20089073 10 34 C8.515 34.495 8.515 34.495 7 35 C6.67 35.99 6.34 36.98 6 38 C3.9375 39.1875 3.9375 39.1875 2 40 C1.95101562 41.18078125 1.90203125 42.3615625 1.8515625 43.578125 C1.77651121 45.13543937 1.70096439 46.69272991 1.625 48.25 C1.5940625 49.02730469 1.563125 49.80460937 1.53125 50.60546875 C1.49257812 51.35957031 1.45390625 52.11367187 1.4140625 52.890625 C1.36693115 53.92751465 1.36693115 53.92751465 1.31884766 54.98535156 C1 57 1 57 -1 61 C-1 53.41 -1 45.82 -1 38 C0.98 37.34 2.96 36.68 5 36 C8.00863622 31.68762142 8.4711134 28.18224738 8 23 C6.89730325 18.9567786 5.51254541 17.23525617 2 15 C1.01 14.34 0.02 13.68 -1 13 C-0.67 8.71 -0.34 4.42 0 0 Z " fill="#668596" transform="translate(140,115)"/>
<path d="M0 0 C0.66 0.33 1.32 0.66 2 1 C-3.40854228 9.01716396 -9.19954916 16.73041419 -15.71875 23.88671875 C-18.30588275 26.59490782 -18.30588275 26.59490782 -19 30.125 C-17.85596677 32.2700623 -16.54215107 34.12259869 -15 36 C-16.98 36 -18.96 36 -21 36 C-23.56 28.32 -23.56 28.32 -22 24 C-20.5625 22.1875 -20.5625 22.1875 -19 21 C-18.34 21 -17.68 21 -17 21 C-14.95830515 18.09451118 -14 16.59857954 -14 13 C-13.071875 12.62875 -12.14375 12.2575 -11.1875 11.875 C-7.39231233 9.64253667 -6.83301798 7.90512526 -5 4 C-2.3125 1.625 -2.3125 1.625 0 0 Z " fill="#109BCC" transform="translate(95,116)"/>
<path d="M0 0 C1.485 0.99 1.485 0.99 3 2 C3.33802675 4.54579377 3.4887947 6.86149086 3.51171875 9.4140625 C3.52966995 10.14370209 3.54762115 10.87334167 3.56611633 11.62509155 C3.62035132 13.95833535 3.65415562 16.29137314 3.6875 18.625 C3.72066162 20.20575792 3.7551502 21.78648861 3.79101562 23.3671875 C3.87608467 27.24464326 3.94283178 31.12203655 4 35 C5.485 34.505 5.485 34.505 7 34 C6.01 38.62 5.02 43.24 4 48 C3.01 48 2.02 48 1 48 C-0.13012105 37.74099813 -0.11660861 27.55309541 -0.0625 17.25 C-0.05747197 15.57031384 -0.05291138 13.89062622 -0.04882812 12.2109375 C-0.03793264 8.14058804 -0.02074084 4.07031071 0 0 Z " fill="#32577A" transform="translate(138,193)"/>
<path d="M0 0 C3.7668773 1.25562577 4.39544646 2.67521854 6.5625 5.9375 C9.047052 9.66044827 9.047052 9.66044827 12 13 C14.58354218 13.16687448 14.58354218 13.16687448 17 13 C17 13.99 17 14.98 17 16 C16.34 16 15.68 16 15 16 C15 16.66 15 17.32 15 18 C15.66 18 16.32 18 17 18 C17 19.32 17 20.64 17 22 C17.7425 21.979375 18.485 21.95875 19.25 21.9375 C22 23 22 23 23.22265625 25.0703125 C24.22346389 27.3588977 25.15065771 29.65126015 26 32 C25.38125 32.5775 24.7625 33.155 24.125 33.75 C21.93920416 35.82232439 21.93920416 35.82232439 21 38.1875 C20 40 20 40 17.875 40.75 C17.25625 40.8325 16.6375 40.915 16 41 C16.25 38.6875 16.25 38.6875 17 36 C17.680625 35.505 18.36125 35.01 19.0625 34.5 C21.19071825 33.15051354 21.19071825 33.15051354 21.6875 30.75 C20.77380693 27.09522771 18.92552314 25.74182898 16.20703125 23.22265625 C13.47804477 20.47434951 11.15696971 17.51467094 8.8125 14.4375 C8.39693848 13.89544922 7.98137695 13.35339844 7.55322266 12.79492188 C0 2.82865448 0 2.82865448 0 0 Z " fill="#1A659F" transform="translate(175,115)"/>
<path d="M0 0 C0.99 0.495 0.99 0.495 2 1 C1.98839844 1.97582031 1.97679687 2.95164063 1.96484375 3.95703125 C1.95582031 5.22933594 1.94679687 6.50164063 1.9375 7.8125 C1.92009766 9.70935547 1.92009766 9.70935547 1.90234375 11.64453125 C1.83840884 14.99605237 1.83840884 14.99605237 3 18 C3.06474934 19.63467109 3.06921371 21.27206742 3.03759766 22.90771484 C3.02072906 23.90660736 3.00386047 24.90549988 2.98648071 25.93466187 C2.9625827 27.01583282 2.93868469 28.09700378 2.9140625 29.2109375 C2.89282318 30.33005524 2.87158386 31.44917297 2.84970093 32.60220337 C2.80338594 34.9778545 2.75445352 37.35345581 2.703125 39.72900391 C2.62605536 43.32574763 2.55844074 46.92257389 2.4921875 50.51953125 C2.44588355 52.83334483 2.39902539 55.1471474 2.3515625 57.4609375 C2.33171295 58.52186615 2.3118634 59.5827948 2.29141235 60.6758728 C2.12347526 68.14341705 1.63916591 75.55843789 1 83 C0.67 83 0.34 83 0 83 C0 55.61 0 28.22 0 0 Z " fill="#98B7C6" transform="translate(139,45)"/>
<path d="M0 0 C2.38191141 3.57286711 3.13073156 7.06717037 4.0625 11.1875 C4.23587891 11.91775391 4.40925781 12.64800781 4.58789062 13.40039062 C6.69659501 22.52195096 7.13511704 31.16033201 7.0625 40.5 C7.05798828 41.60859375 7.05347656 42.7171875 7.04882812 43.859375 C7.03713158 46.57297399 7.02074086 49.28645761 7 52 C6.01 51.67 5.02 51.34 4 51 C3.98018066 50.18845459 3.96036133 49.37690918 3.93994141 48.54077148 C3.84428163 44.83937251 3.73476786 41.13850635 3.625 37.4375 C3.5940625 36.16068359 3.563125 34.88386719 3.53125 33.56835938 C3.33602056 27.30474818 2.90295624 21.94673824 1 16 C0.6439607 13.1927149 0.49910389 10.38844907 0.375 7.5625 C0.33632812 6.83095703 0.29765625 6.09941406 0.2578125 5.34570312 C0.16466016 3.56416468 0.08129714 1.78211878 0 0 Z " fill="#3E6AA5" transform="translate(249,104)"/>
<path d="M0 0 C0.33 0 0.66 0 1 0 C1.04942899 4.92959122 1.08573318 9.85903825 1.10986328 14.78881836 C1.11992237 16.46592725 1.13357122 18.14301861 1.15087891 19.82006836 C1.17513152 22.23035002 1.1864839 24.64039986 1.1953125 27.05078125 C1.20563507 27.80087967 1.21595764 28.55097809 1.22659302 29.32380676 C1.227408 33.10300779 1.15057067 34.77414399 -1 38 C-4 37 -4 37 -6 35 C-6.4140625 32.3984375 -6.4140625 32.3984375 -6.625 29.375 C-6.69976562 28.37210938 -6.77453125 27.36921875 -6.8515625 26.3359375 C-6.90054688 25.56507813 -6.94953125 24.79421875 -7 24 C-7.66 24 -8.32 24 -9 24 C-9.66 20.37 -10.32 16.74 -11 13 C-11.66 13 -12.32 13 -13 13 C-13.33 10.03 -13.66 7.06 -14 4 C-11.52396487 7.7140527 -10.06128777 11.54600418 -8.4375 15.6875 C-8.12103516 16.46544922 -7.80457031 17.24339844 -7.47851562 18.04492188 C-5.50023252 23.08093344 -4.4500711 27.60531217 -4 33 C-3.01 33 -2.02 33 -1 33 C-1.01160156 31.9584375 -1.02320313 30.916875 -1.03515625 29.84375 C-1.11028123 19.85095438 -0.75097634 9.96384674 0 0 Z " fill="#215F97" transform="translate(134,208)"/>
<path d="M0 0 C5.2424891 0.56256882 9.19924895 2.30618374 13.8125 4.6875 C14.51375 5.04328125 15.215 5.3990625 15.9375 5.765625 C21.21145852 8.48546682 26.20985412 11.48722636 31 15 C30.34 15.66 29.68 16.32 29 17 C28.01 16.34 27.02 15.68 26 15 C26 14.34 26 13.68 26 13 C24.7625 13.061875 23.525 13.12375 22.25 13.1875 C18.50404905 13.18090502 16.72160791 12.72160791 14 10 C13.360625 9.29875 12.72125 8.5975 12.0625 7.875 C9.69191389 5.71992171 8.13935605 5.34881734 5 5 C5 4.34 5 3.68 5 3 C3.35 2.67 1.7 2.34 0 2 C0 1.34 0 0.68 0 0 Z " fill="#269FCD" transform="translate(174,30)"/>
<path d="M0 0 C0.7645047 -0.00328308 1.5290094 -0.00656616 2.31668091 -0.00994873 C29.27245558 -0.04752961 29.27245558 -0.04752961 38.8125 6.3125 C35.06300945 7.07944125 32.471841 7.37488932 28.8125 6.3125 C27.94625 6.333125 27.08 6.35375 26.1875 6.375 C23.8125 6.3125 23.8125 6.3125 21.8125 4.3125 C16.51606882 2.40516545 11.84717723 2.04034089 6.25390625 2.1171875 C5.46475327 2.1200174 4.67560028 2.12284729 3.86253357 2.12576294 C1.36652828 2.13686943 -1.12910498 2.16195545 -3.625 2.1875 C-5.32746874 2.19754215 -7.02994316 2.20666583 -8.73242188 2.21484375 C-12.88425576 2.2367774 -17.03581502 2.27124023 -21.1875 2.3125 C-21.1875 1.9825 -21.1875 1.6525 -21.1875 1.3125 C-14.25906286 -0.33169021 -7.0823944 0.0245809 0 0 Z " fill="#55C1E2" transform="translate(135.1875,23.6875)"/>
<path d="M0 0 C0.6875 1.625 0.6875 1.625 1 4 C-0.4375 7.25 -0.4375 7.25 -2 10 C-1.34 10.33 -0.68 10.66 0 11 C-0.99 11.495 -0.99 11.495 -2 12 C-2.72881089 13.97820098 -3.37513559 15.98654801 -4 18 C-4.60553847 19.94367035 -5.23197326 21.88090795 -5.875 23.8125 C-6.33519531 25.24529297 -6.33519531 25.24529297 -6.8046875 26.70703125 C-8 29 -8 29 -10.0703125 29.88671875 C-10.70710937 29.92410156 -11.34390625 29.96148437 -12 30 C-13 29 -13 29 -13.09765625 25.83984375 C-13.08025391 23.90818359 -13.08025391 23.90818359 -13.0625 21.9375 C-13.05347656 20.64714844 -13.04445312 19.35679687 -13.03515625 18.02734375 C-13.02355469 17.02832031 -13.01195312 16.02929688 -13 15 C-12.67 15 -12.34 15 -12 15 C-12 18.96 -12 22.92 -12 27 C-11.01 27 -10.02 27 -9 27 C-9.0825 26.236875 -9.165 25.47375 -9.25 24.6875 C-8.89212745 19.40887994 -6.94669148 14.88410987 -5 10 C-4.34 10 -3.68 10 -3 10 C-3.061875 9.278125 -3.12375 8.55625 -3.1875 7.8125 C-2.96476068 4.47141026 -1.8717754 2.72967245 0 0 Z " fill="#1D4F8C" transform="translate(151,214)"/>
<path d="M0 0 C0.66 0 1.32 0 2 0 C2 14.85 2 29.7 2 45 C1.34 45 0.68 45 0 45 C-0.16776425 39.23438773 -0.32830841 33.46863657 -0.48217773 27.70263672 C-0.53553259 25.74131873 -0.59085676 23.78005328 -0.64819336 21.81884766 C-0.73028615 18.99913866 -0.80528481 16.17931632 -0.87890625 13.359375 C-0.90594131 12.48319519 -0.93297638 11.60701538 -0.96083069 10.70428467 C-0.98092697 9.88373596 -1.00102325 9.06318726 -1.02172852 8.21777344 C-1.04171402 7.49829529 -1.06169952 6.77881714 -1.08229065 6.03753662 C-0.99602172 3.9014967 -0.58873192 2.05010367 0 0 Z " fill="#AFC5D3" transform="translate(131,153)"/>
<path d="M0 0 C7.84848485 4.66666667 7.84848485 4.66666667 8.9375 7.0625 C9.288125 7.701875 9.63875 8.34125 10 9 C10.928125 9.2165625 10.928125 9.2165625 11.875 9.4375 C15.04382769 10.27630733 16.14376429 12.41452883 18 15 C16.01432292 14.70703125 14.02864583 14.4140625 12.04296875 14.12109375 C9.7974658 13.86095201 9.7974658 13.86095201 7 15 C6.34 12.03 5.68 9.06 5 6 C3.02 6.33 1.04 6.66 -1 7 C-1.33 5.35 -1.66 3.7 -2 2 C-1.34 2 -0.68 2 0 2 C0 1.34 0 0.68 0 0 Z " fill="#5A6771" transform="translate(179,129)"/>
<path d="M0 0 C0.33 0 0.66 0 1 0 C1.13947228 11.37473908 0.73570866 22.64906646 0 34 C-0.99 34.495 -0.99 34.495 -2 35 C-2.05848483 30.66672416 -2.09375916 26.33355115 -2.125 22 C-2.14175781 20.77925781 -2.15851563 19.55851562 -2.17578125 18.30078125 C-2.21075729 11.83021331 -1.96263764 6.18153587 0 0 Z " fill="#1099CD" transform="translate(137,46)"/>
<path d="M0 0 C1.51171875 1.3671875 1.51171875 1.3671875 3 3 C2.8125 5.125 2.8125 5.125 2 7 C1.01 7.495 1.01 7.495 0 8 C-1.13350534 10.01669827 -1.13350534 10.01669827 -2 12 C-2.33 11.67 -2.66 11.34 -3 11 C-3.99 12.98 -4.98 14.96 -6 17 C-6.66 17 -7.32 17 -8 17 C-8.17015625 17.60328125 -8.3403125 18.2065625 -8.515625 18.828125 C-9.93548248 23.51063372 -11.03218406 26.85311149 -15 30 C-13.61724492 25.62678895 -11.96680026 21.48451661 -10.0625 17.3125 C-9.30646484 15.63607422 -9.30646484 15.63607422 -8.53515625 13.92578125 C-7.17154901 11.3269471 -6.07776439 9.9654528 -4 8 C-2.80400932 5.96767758 -2.80400932 5.96767758 -1.8125 3.8125 C-1.46832031 3.09707031 -1.12414062 2.38164063 -0.76953125 1.64453125 C-0.51558594 1.10183594 -0.26164062 0.55914062 0 0 Z " fill="#CCF0F9" transform="translate(125,66)"/>
<path d="M0 0 C0.66 0.33 1.32 0.66 2 1 C0.24247051 7.15135322 -2.21355979 12.72938999 -5.0625 18.4375 C-5.41505859 19.14777344 -5.76761719 19.85804687 -6.13085938 20.58984375 C-7.55009857 23.3906194 -8.76525709 25.76525709 -11 28 C-10.85892253 26.54119891 -10.71197585 25.08296449 -10.5625 23.625 C-10.48128906 22.81289062 -10.40007812 22.00078125 -10.31640625 21.1640625 C-10 19 -10 19 -9 17 C-8.34 17 -7.68 17 -7 17 C-6.67 14.03 -6.34 11.06 -6 8 C-5.34 8 -4.68 8 -4 8 C-3.34 7.01 -2.68 6.02 -2 5 C-1.34 5 -0.68 5 0 5 C0 3.35 0 1.7 0 0 Z " fill="#33B3DE" transform="translate(122,64)"/>
<path d="M0 0 C-14.55882353 11 -14.55882353 11 -20 11 C-21.34882408 11.63474075 -22.6846659 12.29848848 -24 13 C-21.1220058 9.06169215 -18.17782479 6.45188319 -14.125 3.75 C-12.61292969 2.72132812 -12.61292969 2.72132812 -11.0703125 1.671875 C-7.43683209 -0.3066614 -3.91155439 -1.9557772 0 0 Z " fill="#2DCAED" transform="translate(82,40)"/>
<path d="M0 0 C0.66 0.33 1.32 0.66 2 1 C1.84660156 1.90878906 1.69320312 2.81757813 1.53515625 3.75390625 C0.76833184 9.12167713 0.64244689 14.52488616 0.4375 19.9375 C0.39431641 21.00291016 0.35113281 22.06832031 0.30664062 23.16601562 C0.20125511 25.77723443 0.09912912 28.38853746 0 31 C-0.66 31.33 -1.32 31.66 -2 32 C-2.33 21.77 -2.66 11.54 -3 1 C-2.34 1.66 -1.68 2.32 -1 3 C-0.67 2.01 -0.34 1.02 0 0 Z " fill="#0C6FB2" transform="translate(137,153)"/>
<path d="M0 0 C0.33 0 0.66 0 1 0 C1.19573608 1.43640171 1.38127816 2.87419504 1.5625 4.3125 C1.66691406 5.11300781 1.77132812 5.91351563 1.87890625 6.73828125 C2 9 2 9 1 12 C1.78375 12.12375 2.5675 12.2475 3.375 12.375 C6 13 6 13 8 15 C8.99 14.67 9.98 14.34 11 14 C13.19671115 19.85789639 12.88178944 23.0410001 11 29 C10.67 29 10.34 29 10 29 C10 26.36 10 23.72 10 21 C9.34 21 8.68 21 8 21 C7.401875 20.21625 6.80375 19.4325 6.1875 18.625 C3.95418195 15.52200631 3.95418195 15.52200631 -1 14 C-0.67 9.38 -0.34 4.76 0 0 Z " fill="#859CA9" transform="translate(140,115)"/>
<path d="M0 0 C1.3398457 -0.01215684 2.6796895 -0.02452486 4.01953125 -0.03710938 C5.92025391 -0.04000977 5.92025391 -0.04000977 7.859375 -0.04296875 C9.5913916 -0.04913208 9.5913916 -0.04913208 11.35839844 -0.05541992 C14.25 0.1875 14.25 0.1875 17.25 2.1875 C15.93 2.1875 14.61 2.1875 13.25 2.1875 C12.92 2.8475 12.59 3.5075 12.25 4.1875 C11.27740234 3.69830078 11.27740234 3.69830078 10.28515625 3.19921875 C6.33380938 1.88210313 2.81973779 1.93260728 -1.3125 2 C-2.06724609 2.00064453 -2.82199219 2.00128906 -3.59960938 2.00195312 C-7.14541407 2.03006964 -10.33945316 2.23577468 -13.75 3.1875 C-13.42 3.8475 -13.09 4.5075 -12.75 5.1875 C-14.91874252 4.68146008 -16.74967627 4.18766187 -18.75 3.1875 C-19.08 3.8475 -19.41 4.5075 -19.75 5.1875 C-20.74 4.8575 -21.73 4.5275 -22.75 4.1875 C-22.42 3.1975 -22.09 2.2075 -21.75 1.1875 C-14.46927615 0.02562072 -7.35728138 0.00361715 0 0 Z " fill="#10AFE1" transform="translate(135.75,24.8125)"/>
<path d="M0 0 C0.33 1.32 0.66 2.64 1 4 C-2.1184325 5.0394775 -4.27475586 5.11494838 -7.54296875 5.09765625 C-8.61611328 5.09443359 -9.68925781 5.09121094 -10.79492188 5.08789062 C-11.91447266 5.07951172 -13.03402344 5.07113281 -14.1875 5.0625 C-15.31865234 5.05798828 -16.44980469 5.05347656 -17.61523438 5.04882812 C-20.41020927 5.03703498 -23.2050782 5.0205765 -26 5 C-26 4.34 -26 3.68 -26 3 C-20.0490678 2.21954988 -14.38305096 1.94647254 -8.3828125 2.16015625 C-4.95389738 1.92968818 -3.56713368 0 0 0 Z " fill="#194A92" transform="translate(154,258)"/>
<path d="M0 0 C0.33 0 0.66 0 1 0 C1.33 10.89 1.66 21.78 2 33 C3.485 32.505 3.485 32.505 5 32 C3.515 38.435 3.515 38.435 2 45 C1.34 45 0.68 45 0 45 C0 30.15 0 15.3 0 0 Z " fill="#4D545E" transform="translate(140,195)"/>
<path d="M0 0 C0.99 1.32 1.98 2.64 3 4 C2.01 4.495 2.01 4.495 1 5 C0.66073053 7.33247761 0.32759934 9.66585471 0 12 C-0.66 12.66 -1.32 13.32 -2 14 C-2.74731773 16.33536791 -3.40318617 18.62651731 -4 21 C-4.18820313 21.73863281 -4.37640625 22.47726563 -4.5703125 23.23828125 C-5.05425425 25.15700805 -5.52800347 27.07829986 -6 29 C-6.33 29 -6.66 29 -7 29 C-6.96884169 17.87648453 -5.00441094 9.93230183 0 0 Z " fill="#36C7EA" transform="translate(28,90)"/>
<path d="M0 0 C0.33 0 0.66 0 1 0 C1 11.22 1 22.44 1 34 C0.01 34 -0.98 34 -2 34 C-2.02684312 31.18743719 -2.04676188 28.37512759 -2.0625 25.5625 C-2.07087891 24.76005859 -2.07925781 23.95761719 -2.08789062 23.13085938 C-2.0965143 21.08704779 -2.0522815 19.04316098 -2 17 C-1.67 16.67 -1.34 16.34 -1 16 C-0.76321284 13.30764224 -0.57801975 10.63501844 -0.4375 7.9375 C-0.39431641 7.17888672 -0.35113281 6.42027344 -0.30664062 5.63867188 C-0.20026367 3.75934562 -0.09960066 1.87969756 0 0 Z " fill="#0A559C" transform="translate(137,208)"/>
<path d="M0 0 C3.7668773 1.25562577 4.39544646 2.67521854 6.5625 5.9375 C9.047052 9.66044827 9.047052 9.66044827 12 13 C14.58354218 13.16687448 14.58354218 13.16687448 17 13 C17 13.99 17 14.98 17 16 C16.34 16 15.68 16 15 16 C15 16.66 15 17.32 15 18 C15.66 18 16.32 18 17 18 C16.67 18.99 16.34 19.98 16 21 C11.31494176 17.3934669 7.97933517 13.66159178 4.625 8.8125 C4.17511719 8.18408203 3.72523438 7.55566406 3.26171875 6.90820312 C0 2.27339001 0 2.27339001 0 0 Z " fill="#1374A8" transform="translate(175,115)"/>
<path d="M0 0 C1.32 0.33 2.64 0.66 4 1 C4.33 2.32 4.66 3.64 5 5 C5.99 5 6.98 5 8 5 C7.95875 5.7425 7.9175 6.485 7.875 7.25 C8.00398134 10.08758952 8.57051222 11.58773938 10 14 C11.32 13.67 12.64 13.34 14 13 C13.67 15.31 13.34 17.62 13 20 C8.87918055 18.62639352 7.91126461 15.86795814 5.9375 12.25 C5.58623047 11.62867188 5.23496094 11.00734375 4.87304688 10.3671875 C2.98946194 6.99168936 1.33612191 3.6276056 0 0 Z " fill="#B1C7D9" transform="translate(103,179)"/>
<path d="M0 0 C6.35078203 6.09675075 11.83618547 12.8879331 17 20 C16.67 20.66 16.34 21.32 16 22 C9.97321429 17.58035714 9.97321429 17.58035714 8.5625 13.25 C8.046875 12.1775 7.53125 11.105 7 10 C3.41136476 8.9384058 3.41136476 8.9384058 0 9 C-0.87890625 2.84765625 -0.87890625 2.84765625 -1 1 C-0.67 0.67 -0.34 0.34 0 0 Z " fill="#8A8C8A" transform="translate(168,109)"/>
<path d="M0 0 C0.33 0 0.66 0 1 0 C1.1953125 6.0546875 1.1953125 6.0546875 1 8 C-1.1385485 10.1385485 -2.13275314 10.42655063 -5 11 C-5 11.99 -5 12.98 -5 14 C-5.66 14 -6.32 14 -7 14 C-6.67 16.64 -6.34 19.28 -6 22 C-6.66 21.67 -7.32 21.34 -8 21 C-10.60931266 21.89363605 -10.60931266 21.89363605 -13 23 C-11.37745627 18.43218669 -9.01524967 14.48940202 -6.5 10.375 C-6.09652344 9.70726563 -5.69304687 9.03953125 -5.27734375 8.3515625 C-3.56783864 5.53059697 -1.82989835 2.74484753 0 0 Z " fill="#C6E7EE" transform="translate(109,96)"/>
<path d="M0 0 C2.125 0.375 2.125 0.375 4 1 C3.236875 1.556875 2.47375 2.11375 1.6875 2.6875 C-2.42339811 6.22478442 -3.83286884 8.4958196 -4.4375 13.9375 C-4.26847375 18.20340057 -2.75109882 20.7139653 0 24 C2.10575643 25.83300909 2.10575643 25.83300909 4 27 C3.67 27.66 3.34 28.32 3 29 C2.34 28.67 1.68 28.34 1 28 C1 27.34 1 26.68 1 26 C0.01 26 -0.98 26 -2 26 C-5.23060081 23.67396742 -6.05800913 20.76796349 -7 17 C-7.47067556 11.72843369 -6.73811096 8.52841428 -4 4 C-2.66666667 2.66666667 -1.33333333 1.33333333 0 0 Z " fill="#C0DFF0" transform="translate(128,127)"/>
<path d="M0 0 C0.33 0.66 0.66 1.32 1 2 C0.14453125 4.27734375 0.14453125 4.27734375 -1.1875 6.9375 C-1.61417969 7.81277344 -2.04085937 8.68804687 -2.48046875 9.58984375 C-4.07658988 12.12148061 -5.45490804 13.45458344 -8 15 C-8.66 15 -9.32 15 -10 15 C-10.66 16.98 -11.32 18.96 -12 21 C-12.99 21 -13.98 21 -15 21 C-15.33 22.32 -15.66 23.64 -16 25 C-16.99 24.67 -17.98 24.34 -19 24 C-18.29875 23.18917969 -17.5975 22.37835938 -16.875 21.54296875 C-10.89595554 14.58132818 -5.26354196 7.52580928 0 0 Z " fill="#C0E1F0" transform="translate(95,119)"/>
<path d="M0 0 C-0.33 0.99 -0.66 1.98 -1 3 C-1.969375 3.12375 -2.93875 3.2475 -3.9375 3.375 C-5.4534375 3.684375 -5.4534375 3.684375 -7 4 C-7.33 4.66 -7.66 5.32 -8 6 C-8.969375 5.979375 -9.93875 5.95875 -10.9375 5.9375 C-13.87465895 5.64381501 -13.87465895 5.64381501 -15 7 C-16.51928038 7.07179964 -18.04167482 7.08392007 -19.5625 7.0625 C-20.38878906 7.05347656 -21.21507813 7.04445313 -22.06640625 7.03515625 C-22.70449219 7.02355469 -23.34257813 7.01195312 -24 7 C-20.54464086 4.69642724 -17.04916904 3.59113887 -13.125 2.375 C-12.41730469 2.14554688 -11.70960937 1.91609375 -10.98046875 1.6796875 C-7.21261837 0.50091867 -3.99746145 -0.29785007 0 0 Z " fill="#4FCAEB" transform="translate(114,26)"/>
<path d="M0 0 C2.87385045 3.42125054 4.45884606 6.83888437 6 11 C5.67 11.66 5.34 12.32 5 13 C2.125 12.6875 2.125 12.6875 -1 12 C-3 9 -3 9 -2.625 6.4375 C-2.41875 5.633125 -2.2125 4.82875 -2 4 C-2 3.34 -2 2.68 -2 2 C-1.34 2 -0.68 2 0 2 C0 1.34 0 0.68 0 0 Z " fill="#AAAAA9" transform="translate(154,83)"/>
<path d="M0 0 C2.3803742 3.5705613 3.16978964 7.07301982 4.125 11.1875 C4.30675781 11.91775391 4.48851562 12.64800781 4.67578125 13.40039062 C5.84962517 18.38260785 6.17383702 22.88339694 6 28 C5.67 28 5.34 28 5 28 C5 26.35 5 24.7 5 23 C4.34 23 3.68 23 3 23 C1.31438733 17.78556404 0.61487302 13.02460865 0.375 7.5625 C0.33632812 6.83095703 0.29765625 6.09941406 0.2578125 5.34570312 C0.16466016 3.56416468 0.08129714 1.78211878 0 0 Z " fill="#5587B7" transform="translate(249,104)"/>
<path d="M0 0 C1.27194845 3.81584535 0.48462688 4.65344696 -1.25 8.1875 C-4.33056725 14.65583789 -6.78415619 21.18201904 -9 28 C-9.66 28 -10.32 28 -11 28 C-11.33 28.99 -11.66 29.98 -12 31 C-13 30 -13 30 -13.3125 27.6875 C-12.90509393 24.1838078 -11.52170709 23.37337137 -9 21 C-7.58288764 18.23663091 -6.98837885 16.48808827 -7.0625 13.375 C-6.98233715 10.32881176 -6.10775698 10.08254458 -4 8 C-2.80400932 5.96767758 -2.80400932 5.96767758 -1.8125 3.8125 C-1.46832031 3.09707031 -1.12414062 2.38164062 -0.76953125 1.64453125 C-0.51558594 1.10183594 -0.26164063 0.55914062 0 0 Z " fill="#465562" transform="translate(157,196)"/>
<path d="M0 0 C2.59362957 2.3358362 4.08659594 4.73213743 5.69921875 7.81640625 C6.18583984 8.74517578 6.67246094 9.67394531 7.17382812 10.63085938 C7.67333984 11.59830078 8.17285156 12.56574219 8.6875 13.5625 C9.19861328 14.53380859 9.70972656 15.50511719 10.23632812 16.50585938 C14 23.73673231 14 23.73673231 14 26 C13.01 26.33 12.02 26.66 11 27 C10.7525 26.195625 10.505 25.39125 10.25 24.5625 C7.59555776 16.8430301 7.59555776 16.8430301 3.375 9.9375 C1.2178146 6.89782967 0.78513998 3.62372299 0 0 Z " fill="#2779AC" transform="translate(106,186)"/>
<path d="M0 0 C0.99 0 1.98 0 3 0 C2.40159235 4.18885353 1.75745527 8.1335984 0 12 C-1.2684375 12.495 -1.2684375 12.495 -2.5625 13 C-3.7690625 13.495 -3.7690625 13.495 -5 14 C-5.89830839 17.05272465 -5.89830839 17.05272465 -6 20 C-6.33 20 -6.66 20 -7 20 C-7.46719413 14.16007335 -6.40691207 11.67233655 -3 7 C-1.8872762 4.70006043 -0.94981938 2.37454845 0 0 Z " fill="#E1E3E2" transform="translate(117,83)"/>
<path d="M0 0 C0 0.99 0 1.98 0 3 C-0.33 3.33 -0.66 3.66 -1 4 C-1.23075082 5.34747084 -1.41153063 6.70377565 -1.5625 8.0625 C-1.706875 9.361875 -1.85125 10.66125 -2 12 C-2.86625 12.12375 -2.86625 12.12375 -3.75 12.25 C-6.61735579 13.20578526 -7.91800845 14.85084743 -10 17 C-10.99 17.33 -11.98 17.66 -13 18 C-11.4805627 13.1396313 -8.67081346 9.93920644 -5.375 6.1875 C-4.859375 5.59001953 -4.34375 4.99253906 -3.8125 4.37695312 C-2.54753728 2.91287591 -1.27456166 1.45572845 0 0 Z " fill="#4AD0EE" transform="translate(49,60)"/>
<path d="M0 0 C0.78375 0.185625 1.5675 0.37125 2.375 0.5625 C4.97089775 1.25962266 4.97089775 1.25962266 7 0 C7 2.31 7 4.62 7 7 C6.34 7 5.68 7 5 7 C6.07401108 9.91517292 6.77810176 11.77810176 9 14 C8.01 14.99 7.02 15.98 6 17 C4.0990238 14.1485357 3.03734101 11.70289524 1.875 8.5 C1.52179688 7.5409375 1.16859375 6.581875 0.8046875 5.59375 C0 3 0 3 0 0 Z " fill="#1A99C4" transform="translate(144,51)"/>
<path d="M0 0 C0.9075 0.12375 1.815 0.2475 2.75 0.375 C2.75 0.705 2.75 1.035 2.75 1.375 C1.1 1.375 -0.55 1.375 -2.25 1.375 C-2.27578125 1.96925781 -2.3015625 2.56351563 -2.328125 3.17578125 C-2.80245865 10.1075208 -4.62922605 15.96324606 -7.25 22.375 C-9.25 18.625 -9.25 18.625 -9.25 16.375 C-8.59 16.375 -7.93 16.375 -7.25 16.375 C-7.29640625 15.72273438 -7.3428125 15.07046875 -7.390625 14.3984375 C-7.576799 9.89036712 -7.49862683 6.92962908 -5.625 2.75 C-3.25 0.375 -3.25 0.375 0 0 Z " fill="#2EB9E1" transform="translate(132.25,42.625)"/>
<path d="M0 0 C0.33 0.99 0.66 1.98 1 3 C-0.14453125 4.83203125 -0.14453125 4.83203125 -1.8125 6.8125 C-4.44949815 10.13608984 -5.83711499 12.88517612 -7 17 C-7.97004121 19.01470098 -8.96244882 21.01922047 -10 23 C-10.33 23 -10.66 23 -11 23 C-11.67584035 16.6471007 -9.88071725 12.09412462 -6 7 C-5.01 6.67 -4.02 6.34 -3 6 C-1.84478498 3.52869082 -1.84478498 3.52869082 -1 1 C-0.67 0.67 -0.34 0.34 0 0 Z " fill="#17569A" transform="translate(163,194)"/>
<path d="M0 0 C0.99 0.33 1.98 0.66 3 1 C3 1.99 3 2.98 3 4 C3.99 4.33 4.98 4.66 6 5 C7.0625 6.875 7.0625 6.875 8 9 C8.99 10.485 8.99 10.485 10 12 C9.360625 12.12375 8.72125 12.2475 8.0625 12.375 C7.381875 12.58125 6.70125 12.7875 6 13 C5.67 13.66 5.34 14.32 5 15 C4.16013916 13.06532058 3.32831973 11.12714871 2.5 9.1875 C2.0359375 8.10855469 1.571875 7.02960938 1.09375 5.91796875 C0 3 0 3 0 0 Z " fill="#2AAAD8" transform="translate(22,180)"/>
<path d="M0 0 C-1.56097474 1.1063219 -3.12385327 2.20995785 -4.6875 3.3125 C-5.55761719 3.92738281 -6.42773438 4.54226562 -7.32421875 5.17578125 C-12.36872439 8.61488217 -12.36872439 8.61488217 -15 10 C-15.66 9.67 -16.32 9.34 -17 9 C-16 7 -15 5 -14 3 C-12.33333333 2.66666667 -10.66666667 2.33333333 -9 2 C-7.96875 1.46375 -6.9375 0.9275 -5.875 0.375 C-3 -1 -3 -1 0 0 Z " fill="#4B60A1" transform="translate(207,241)"/>
<path d="M0 0 C0.99 0 1.98 0 3 0 C3.33 0.66 3.66 1.32 4 2 C5.98 1.67 7.96 1.34 10 1 C10 2.65 10 4.3 10 6 C10.639375 6.268125 11.27875 6.53625 11.9375 6.8125 C14 8 14 8 15 11 C9.24328521 9.35522435 4.57181535 7.30532917 1.125 2.25 C0.75375 1.5075 0.3825 0.765 0 0 Z " fill="#2F83B8" transform="translate(66,239)"/>
<path d="M0 0 C0.40406244 5.05078046 -0.57222615 7.63121901 -3.375 11.8125 C-4.00148437 12.76769531 -4.62796875 13.72289062 -5.2734375 14.70703125 C-7 17 -7 17 -9 18 C-8.67 16.02 -8.34 14.04 -8 12 C-7.01 12 -6.02 12 -5 12 C-5.12375 10.14375 -5.12375 10.14375 -5.25 8.25 C-5.26762779 4.93597596 -5.18469915 4.23832148 -3.0625 1.5 C-1 0 -1 0 0 0 Z " fill="#576CA3" transform="translate(241,197)"/>
<path d="M0 0 C0.99 0 1.98 0 3 0 C3 0.66 3 1.32 3 2 C3.66 2 4.32 2 5 2 C5.33 3.65 5.66 5.3 6 7 C6.66 7 7.32 7 8 7 C8 7.66 8 8.32 8 9 C8.99 9.33 9.98 9.66 11 10 C10.34 11.65 9.68 13.3 9 15 C8.34 15 7.68 15 7 15 C4.69 10.05 2.38 5.1 0 0 Z " fill="#A6B1BC" transform="translate(114,199)"/>
<path d="M0 0 C0.66 0.33 1.32 0.66 2 1 C-1.651893 6.41995647 -5.14889642 11.58990583 -10 16 C-9.27515682 10.0200438 -6.67873448 5.4879692 -2.25 1.5625 C-1.5075 1.046875 -0.765 0.53125 0 0 Z " fill="#189DCB" transform="translate(95,116)"/>
<path d="M0 0 C0.99 0.99 1.98 1.98 3 3 C2.67 3.33 2.34 3.66 2 4 C1.91224395 6.14558827 1.89304781 8.29404421 1.90234375 10.44140625 C1.90556641 11.74658203 1.90878906 13.05175781 1.91210938 14.39648438 C1.92046599 15.7851569 1.92893095 17.17382877 1.9375 18.5625 C1.94251334 19.95507656 1.94707653 21.34765481 1.95117188 22.74023438 C1.96300566 26.1601987 1.9794912 29.58007844 2 33 C1.01 33.495 1.01 33.495 0 34 C0 22.78 0 11.56 0 0 Z " fill="#12B0DC" transform="translate(18,127)"/>
<path d="M0 0 C0 0.99 0 1.98 0 3 C5.94 3 11.88 3 18 3 C18 3.33 18 3.66 18 4 C14.85418698 4.02948491 11.70841037 4.04695916 8.5625 4.0625 C7.68400391 4.07087891 6.80550781 4.07925781 5.90039062 4.08789062 C0.18216923 4.10899107 -5.32800815 3.73280057 -11 3 C-6.98213116 0.99106558 -4.56087444 -0.12002301 0 0 Z " fill="#76A0CE" transform="translate(128,260)"/>
<path d="M0 0 C7.90255906 4.6988189 7.90255906 4.6988189 8.6875 7.125 C8.790625 7.74375 8.89375 8.3625 9 9 C8.01 9.33 7.02 9.66 6 10 C5.67 8.68 5.34 7.36 5 6 C3.02 6.33 1.04 6.66 -1 7 C-1.33 5.35 -1.66 3.7 -2 2 C-1.34 2 -0.68 2 0 2 C0 1.34 0 0.68 0 0 Z " fill="#6B6B6B" transform="translate(179,129)"/>
<path d="M0 0 C0.99 0.99 1.98 1.98 3 3 C2.01 4.98 1.02 6.96 0 9 C-1.32 8.67 -2.64 8.34 -4 8 C-4.25 5.6875 -4.25 5.6875 -4 3 C-2 1.1875 -2 1.1875 0 0 Z " fill="#E8E8ED" transform="translate(122,128)"/>
<path d="M0 0 C2.6855594 2.6855594 3.06049974 5.37621328 4 9 C2.02 9.66 0.04 10.32 -2 11 C-2.25 3.375 -2.25 3.375 0 0 Z " fill="#B0B3B2" transform="translate(148,69)"/>
<path d="M0 0 C0.99 0.33 1.98 0.66 3 1 C2.979375 1.886875 2.95875 2.77375 2.9375 3.6875 C2.99286219 6.62169631 3.3305734 9.15493696 4 12 C2.02 12.99 2.02 12.99 0 14 C0 9.38 0 4.76 0 0 Z " fill="#BCCCD1" transform="translate(140,46)"/>
<path d="M0 0 C0.33 0 0.66 0 1 0 C1 6.6 1 13.2 1 20 C-1.95255665 15.57116502 -2.47210044 10.88982696 -1.61328125 5.6328125 C-1.13799982 3.73842837 -0.57676147 1.865993 0 0 Z " fill="#9B9EA7" transform="translate(131,219)"/>
<path d="M0 0 C1.32 0 2.64 0 4 0 C3.67 0.66 3.34 1.32 3 2 C2.01 1.34 1.02 0.68 0 0 Z M-1 1 C0 3 1 5 2 7 C2.99 7.66 3.98 8.32 5 9 C3.35 9.66 1.7 10.32 0 11 C-1.65 9.02 -3.3 7.04 -5 5 C-3.68 5 -2.36 5 -1 5 C-1 3.68 -1 2.36 -1 1 Z " fill="#CDE6ED" transform="translate(83,144)"/>
<path d="M0 0 C0.66 0.33 1.32 0.66 2 1 C2 1.66 2 2.32 2 3 C2.31802943 4.66965451 2.64984951 6.33678518 3 8 C1.02 8.33 -0.96 8.66 -3 9 C-3.33 8.01 -3.66 7.02 -4 6 C-3.34 6 -2.68 6 -2 6 C-2.33 4.68 -2.66 3.36 -3 2 C-2.01 1.34 -1.02 0.68 0 0 Z " fill="#17378A" transform="translate(206,232)"/>
<path d="M0 0 C0.33 0 0.66 0 1 0 C1.49729503 6.09186416 0.55947033 9.18990496 -3 14 C-5.75 14.9375 -5.75 14.9375 -8 15 C-8 14.34 -8 13.68 -8 13 C-7.236875 12.29875 -6.47375 11.5975 -5.6875 10.875 C-2.39141811 7.34895891 -1.46719365 4.55602238 0 0 Z " fill="#1E74A1" transform="translate(148,138)"/>
<path d="M0 0 C2.8125 0.3125 2.8125 0.3125 6 1 C6.886875 1.103125 7.77375 1.20625 8.6875 1.3125 C11.62722752 2.18647305 12.29254573 3.53477063 14 6 C8.53135543 4.98408579 3.23609987 3.92908943 -2 2 C-1.34 1.34 -0.68 0.68 0 0 Z " fill="#548BBA" transform="translate(96,255)"/>
<path d="M0 0 C2.48229236 2.48229236 2.6972296 3.51814041 3 7 C2.49716366 9.73766453 1.77266318 12.31840425 1 15 C0.67 15 0.34 15 0 15 C0 12.36 0 9.72 0 7 C-0.66 7 -1.32 7 -2 7 C-2 5.02 -2 3.04 -2 1 C-1.34 0.67 -0.68 0.34 0 0 Z " fill="#898D8C" transform="translate(150,129)"/>
<path d="M0 0 C1.5625 1.25 1.5625 1.25 3 3 C2.8125 5.125 2.8125 5.125 2 7 C1.01 7.495 1.01 7.495 0 8 C-1.13350534 10.01669827 -1.13350534 10.01669827 -2 12 C-2.99 12 -3.98 12 -5 12 C-3.68938409 7.76570244 -2.05643741 3.92592596 0 0 Z " fill="#ECF2F1" transform="translate(125,66)"/>
<path d="M0 0 C1.78198477 3.30710686 2.96157065 6.68214999 4.125 10.25 C4.47820312 11.32765625 4.83140625 12.4053125 5.1953125 13.515625 C5.46085938 14.33546875 5.72640625 15.1553125 6 16 C5.34 16.66 4.68 17.32 4 18 C4 17.01 4 16.02 4 15 C3.01 14.67 2.02 14.34 1 14 C0.93941406 13.39671875 0.87882813 12.7934375 0.81640625 12.171875 C0.69072266 10.97304688 0.69072266 10.97304688 0.5625 9.75 C0.48128906 8.96109375 0.40007812 8.1721875 0.31640625 7.359375 C0.05128191 5.0012079 0.05128191 5.0012079 -0.59765625 2.765625 C-0.73042969 2.18296875 -0.86320313 1.6003125 -1 1 C-0.67 0.67 -0.34 0.34 0 0 Z " fill="#B6D8E5" transform="translate(143,50)"/>
<path d="M0 0 C1.07310858 3.27185553 0.89263102 5.42947592 0.0625 8.75 C-0.22947266 9.94882813 -0.22947266 9.94882813 -0.52734375 11.171875 C-0.68332031 11.77515625 -0.83929688 12.3784375 -1 13 C-1.99 12.34 -2.98 11.68 -4 11 C-3.91291331 9.54054712 -3.80473093 8.08234132 -3.6875 6.625 C-3.62949219 5.81289062 -3.57148437 5.00078125 -3.51171875 4.1640625 C-3 2 -3 2 0 0 Z " fill="#0AC5F0" transform="translate(39,76)"/>
<path d="M0 0 C0.99 1.485 0.99 1.485 2 3 C1.34 3 0.68 3 0 3 C0 2.01 0 1.02 0 0 Z M-2 3 C-1.34 3.33 -0.68 3.66 0 4 C-2.33846154 9.66153846 -2.33846154 9.66153846 -5.6875 11.375 C-6.450625 11.58125 -7.21375 11.7875 -8 12 C-7.69381595 8.32579134 -7.24228216 7.21864487 -4.4375 4.6875 C-3.633125 4.130625 -2.82875 3.57375 -2 3 Z " fill="#1063A8" transform="translate(199,144)"/>
<path d="M0 0 C5.54050113 0.56825653 10.03715966 2.62886517 15 5 C15 5.33 15 5.66 15 6 C11.7 5.67 8.4 5.34 5 5 C5 4.34 5 3.68 5 3 C3.35 2.67 1.7 2.34 0 2 C0 1.34 0 0.68 0 0 Z " fill="#56B4D5" transform="translate(174,30)"/>
<path d="M0 0 C4.21814817 3.9700218 7.61227103 8.30840284 11 13 C10.67 13.66 10.34 14.32 10 15 C4.98494408 11.3526866 2.1912071 7.83892246 0 2 C0 1.34 0 0.68 0 0 Z " fill="#88A7BB" transform="translate(174,116)"/>
<path d="M0 0 C1.65 0 3.3 0 5 0 C5 1.32 5 2.64 5 4 C4.34 4 3.68 4 3 4 C2.34 5.98 1.68 7.96 1 10 C0.01 10 -0.98 10 -2 10 C-1.34 6.7 -0.68 3.4 0 0 Z " fill="#04A4DD" transform="translate(106,88)"/>
<path d="M0 0 C-2.60542016 1.73694677 -4.58342775 2.69100448 -7.5 3.6875 C-8.2734375 3.95949219 -9.046875 4.23148437 -9.84375 4.51171875 C-12 5 -12 5 -15 4 C-9.98010898 -0.11888494 -6.40141012 -0.51211281 0 0 Z " fill="#5D7CAD" transform="translate(181,255)"/>
<path d="M0 0 C4.455 0.99 4.455 0.99 9 2 C9 4.31 9 6.62 9 9 C7.87105124 8.06725891 6.74699124 7.12859878 5.625 6.1875 C4.99851562 5.66542969 4.37203125 5.14335937 3.7265625 4.60546875 C2 3 2 3 0 0 Z " fill="#3F99C6" transform="translate(46,223)"/>
<path d="M0 0 C0.99 0 1.98 0 3 0 C3.433125 1.03125 3.86625 2.0625 4.3125 3.125 C5.35779207 5.59569034 6.47231388 7.87715435 7.75 10.25 C9 13 9 13 8 16 C6.84800669 14.08702939 5.70362312 12.16947471 4.5625 10.25 C3.92441406 9.18265625 3.28632813 8.1153125 2.62890625 7.015625 C1.30526901 4.56515029 0.46702949 2.71008663 0 0 Z " fill="#2284B2" transform="translate(161,92)"/>
<path d="M0 0 C0.33 0.66 0.66 1.32 1 2 C2.2375 1.979375 3.475 1.95875 4.75 1.9375 C7.6640825 1.93233319 10.20953327 2.06984442 13 3 C13 3.66 13 4.32 13 5 C7.01006953 5.3152595 3.36439644 4.68219822 -2 2 C-1.34 1.34 -0.68 0.68 0 0 Z " fill="#2A66A4" transform="translate(108,257)"/>
<path d="M0 0 C0.33 0 0.66 0 1 0 C1.125 7.625 1.125 7.625 0 11 C-1.65 10.67 -3.3 10.34 -5 10 C-4.67 9.01 -4.34 8.02 -4 7 C-3.34 6.67 -2.68 6.34 -2 6 C-1.27306096 4.02111039 -0.60183749 2.02045442 0 0 Z " fill="#2F4C94" transform="translate(248,178)"/>
<path d="M0 0 C0 0.66 0 1.32 0 2 C-0.99 2.33 -1.98 2.66 -3 3 C-4.20882096 5.00016466 -4.20882096 5.00016466 -5 7 C-5.66 7 -6.32 7 -7 7 C-7.33 9.97 -7.66 12.94 -8 16 C-8.33 16 -8.66 16 -9 16 C-9.42014232 9.90793639 -9.06715472 6.88058567 -5 2 C-2 0 -2 0 0 0 Z " fill="#2484B2" transform="translate(132,129)"/>
<path d="M0 0 C3.9945793 2.05127045 6.10267152 3.88912162 8 8 C7.67 8.66 7.34 9.32 7 10 C5.68 8.02 4.36 6.04 3 4 C2.01 4.99 1.02 5.98 0 7 C-0.66 6.67 -1.32 6.34 -2 6 C-1.49396008 3.83125748 -1.00016187 2.00032373 0 0 Z " fill="#9DADB5" transform="translate(166,106)"/>
<path d="M0 0 C1.32 0.33 2.64 0.66 4 1 C4.12375 1.78375 4.2475 2.5675 4.375 3.375 C4.79117993 6.14057822 4.79117993 6.14057822 7 8 C6.625 10.625 6.625 10.625 6 13 C3.59195432 10.59195432 2.99231241 8.57796225 1.875 5.375 C1.52179688 4.37210938 1.16859375 3.36921875 0.8046875 2.3359375 C0.53914063 1.56507813 0.27359375 0.79421875 0 0 Z " fill="#95A7B8" transform="translate(121,214)"/>
<path d="M0 0 C1.14926266 0.95421808 2.29430541 1.91352045 3.4375 2.875 C4.07558594 3.40867188 4.71367187 3.94234375 5.37109375 4.4921875 C7 6 7 6 8 8 C4.28400809 8.20086443 3.22791555 8.1519437 0 6 C-0.1875 2.875 -0.1875 2.875 0 0 Z " fill="#499DC9" transform="translate(217,55)"/>
<path d="M0 0 C-0.33 1.32 -0.66 2.64 -1 4 C-2.32 4.33 -3.64 4.66 -5 5 C-5 4.34 -5 3.68 -5 3 C-6.65 3 -8.3 3 -10 3 C-7.29536552 -0.8183075 -4.37912428 -0.24787496 0 0 Z " fill="#0ABDE8" transform="translate(97,33)"/>
<path d="M0 0 C1.50433594 0.01353516 1.50433594 0.01353516 3.0390625 0.02734375 C3.80992188 0.03894531 4.58078125 0.05054687 5.375 0.0625 C5.375 0.7225 5.375 1.3825 5.375 2.0625 C4.405625 2.041875 3.43625 2.02125 2.4375 2 C-0.49965895 1.70631501 -0.49965895 1.70631501 -1.625 3.0625 C-3.14428038 3.13429964 -4.66667482 3.14642007 -6.1875 3.125 C-7.01378906 3.11597656 -7.84007813 3.10695312 -8.69140625 3.09765625 C-9.32949219 3.08605469 -9.96757813 3.07445312 -10.625 3.0625 C-6.58365069 0.36826713 -4.81510472 -0.05598959 0 0 Z " fill="#39C7E9" transform="translate(100.625,29.9375)"/>
<path d="M0 0 C0.33 0.99 0.66 1.98 1 3 C-0.1796875 4.9375 -0.1796875 4.9375 -1.875 7 C-3.87571307 9.45668953 -4.98453785 10.95361354 -6 14 C-6.33 14 -6.66 14 -7 14 C-7 12.02 -7 10.04 -7 8 C-6.071875 7.6596875 -6.071875 7.6596875 -5.125 7.3125 C-2.37585439 5.6144983 -2.00115914 4.00347742 -1 1 C-0.67 0.67 -0.34 0.34 0 0 Z " fill="#1059A2" transform="translate(163,194)"/>
<path d="M0 0 C1.65 0 3.3 0 5 0 C5 0.99 5 1.98 5 3 C4.34 3 3.68 3 3 3 C3 3.66 3 4.32 3 5 C3.66 5 4.32 5 5 5 C4.67 5.99 4.34 6.98 4 8 C2 6.8125 2 6.8125 0 5 C-0.25 2.3125 -0.25 2.3125 0 0 Z " fill="#0B6BAF" transform="translate(187,128)"/>
<path d="M0 0 C3.33511388 2.9901021 5.21521119 5.89498574 7 10 C7 10.66 7 11.32 7 12 C3.33663903 10.77887968 2.64957986 9.13279518 0.76953125 5.88671875 C0 4 0 4 0 0 Z " fill="#5B97C0" transform="translate(236,78)"/>
<path d="M0 0 C0.99 0 1.98 0 3 0 C3.67154933 1.28913487 4.33708859 2.58140204 5 3.875 C5.37125 4.59429687 5.7425 5.31359375 6.125 6.0546875 C7 8 7 8 7 10 C6.01 10.33 5.02 10.66 4 11 C3.71125 10.113125 3.4225 9.22625 3.125 8.3125 C2.16851252 5.49617576 1.13201054 2.74916844 0 0 Z " fill="#1E6FAA" transform="translate(113,202)"/>
<path d="M0 0 C-1.31061591 4.23429756 -2.94356259 8.07407404 -5 12 C-6.60156595 7.99608513 -5.4087561 4.92968808 -4 1 C-2 0 -2 0 0 0 Z " fill="#23A6CF" transform="translate(117,80)"/>
<path d="M0 0 C4.63698228 4.63698228 5.46060633 9.74303344 6 16 C3.39473112 13.39473112 2.65865776 10.82060766 1.375 7.375 C0.92898437 6.18648438 0.48296875 4.99796875 0.0234375 3.7734375 C-0.31429687 2.85820313 -0.65203125 1.94296875 -1 1 C-0.67 0.67 -0.34 0.34 0 0 Z " fill="#2695C2" transform="translate(151,68)"/>
<path d="M0 0 C2 2 2 2 2.125 4.625 C2.08375 5.40875 2.0425 6.1925 2 7 C0.68 7 -0.64 7 -2 7 C-2 5.02 -2 3.04 -2 1 C-1.34 0.67 -0.68 0.34 0 0 Z " fill="#0A65B1" transform="translate(122,221)"/>
<path d="M0 0 C0.99 0.33 1.98 0.66 3 1 C3 3.97 3 6.94 3 10 C0.16671013 7.16671013 -0.7191375 5.64553172 -2 2 C-1.34 2 -0.68 2 0 2 C0 1.34 0 0.68 0 0 Z " fill="#3CA9D2" transform="translate(36,204)"/>
<path d="M0 0 C0.99 0 1.98 0 3 0 C3 0.66 3 1.32 3 2 C4.65 2 6.3 2 8 2 C8.33 3.32 8.66 4.64 9 6 C3.50847458 5.38983051 3.50847458 5.38983051 1.125 3.5625 C0 2 0 2 0 0 Z " fill="#039BD4" transform="translate(176,33)"/>
<path d="M0 0 C1.85546875 0.25390625 1.85546875 0.25390625 4 1 C5.30078125 2.77734375 5.30078125 2.77734375 6.3125 4.9375 C6.65925781 5.64777344 7.00601563 6.35804688 7.36328125 7.08984375 C7.57339844 7.72019531 7.78351563 8.35054687 8 9 C7.67 9.66 7.34 10.32 7 11 C5.83051998 9.35616456 4.6644855 7.70987731 3.5 6.0625 C2.8503125 5.14597656 2.200625 4.22945312 1.53125 3.28515625 C0 1 0 1 0 0 Z " fill="#B6D7ED" transform="translate(95,168)"/>
<path d="M0 0 C1.98 0 3.96 0 6 0 C6 0.99 6 1.98 6 3 C2.66666667 6 2.66666667 6 0 6 C0 4.02 0 2.04 0 0 Z " fill="#505A5F" transform="translate(191,144)"/>
<path d="M0 0 C0.125 5.75 0.125 5.75 -1 8 C-2.32 7.67 -3.64 7.34 -5 7 C-5 4 -5 4 -3.0625 1.8125 C-1 0 -1 0 0 0 Z " fill="#29438E" transform="translate(241,197)"/>
<path d="M0 0 C0.66 0.33 1.32 0.66 2 1 C2 1.99 2 2.98 2 4 C-1.75 6 -1.75 6 -4 6 C-5.34882408 6.63474075 -6.6846659 7.29848848 -8 8 C-5.58443874 4.80800833 -3.31996462 2.25283313 0 0 Z " fill="#5DD6F0" transform="translate(66,45)"/>
<path d="M0 0 C2.64 0.99 5.28 1.98 8 3 C5.23776722 5.76223278 2.79293383 5.57856291 -1 6 C-0.67 4.02 -0.34 2.04 0 0 Z " fill="#06A8DC" transform="translate(136,40)"/>
<path d="M0 0 C0.66 0.33 1.32 0.66 2 1 C2.07654536 5.51617599 2.10228696 9.59085217 1 14 C0.67 14 0.34 14 0 14 C-1.33257403 4.58997722 -1.33257403 4.58997722 0 0 Z " fill="#6180B3" transform="translate(253,155)"/>
<path d="M0 0 C0.66 0.66 1.32 1.32 2 2 C3.31747324 2.69748583 4.64914193 3.36959957 6 4 C5.01 5.485 5.01 5.485 4 7 C1 6 1 6 -1 4 C-0.625 1.875 -0.625 1.875 0 0 Z " fill="#0E529F" transform="translate(129,239)"/>
<path d="M0 0 C0.99 0 1.98 0 3 0 C3 0.66 3 1.32 3 2 C3.66 2 4.32 2 5 2 C5.33 2.99 5.66 3.98 6 5 C5.34 6.32 4.68 7.64 4 9 C2.68 6.03 1.36 3.06 0 0 Z " fill="#A0B6C9" transform="translate(114,199)"/>
<path d="M0 0 C2.31 0.66 4.62 1.32 7 2 C7 4.31 7 6.62 7 9 C4.03595495 6.19195732 1.55500981 3.81684226 0 0 Z " fill="#BCE2F2" transform="translate(88,159)"/>
<path d="M0 0 C1.65 1.65 3.3 3.3 5 5 C4.34 6.32 3.68 7.64 3 9 C0.90250005 6.64031256 0.03094296 5.45383006 -0.1875 2.25 C-0.125625 1.5075 -0.06375 0.765 0 0 Z " fill="#4394C3" transform="translate(231,71)"/>
<path d="M0 0 C0.33 1.32 0.66 2.64 1 4 C-2.12290635 3.51421457 -4.99580359 3.0013988 -8 2 C-8 1.34 -8 0.68 -8 0 C-5.13822943 -1.43088528 -3.06624227 -0.59991697 0 0 Z " fill="#028CC8" transform="translate(200,43)"/>
<path d="M0 0 C2.64 0 5.28 0 8 0 C6.01046676 1.98953324 4.59565478 2.97746933 2 4 C1.01 3.67 0.02 3.34 -1 3 C-0.67 2.01 -0.34 1.02 0 0 Z " fill="#677DB1" transform="translate(182,251)"/>
<path d="M0 0 C2.64 0 5.28 0 8 0 C8 0.66 8 1.32 8 2 C9.45833358 3.62514468 9.45833358 3.62514468 11 5 C9.53932801 4.54917531 8.08151968 4.08906463 6.625 3.625 C5.81289062 3.36976563 5.00078125 3.11453125 4.1640625 2.8515625 C2 2 2 2 0 0 Z " fill="#649DC7" transform="translate(83,251)"/>
<path d="M0 0 C3.7952131 1.49097658 5.61042731 3.75700849 8 7 C7.34 7.66 6.68 8.32 6 9 C4.99712471 7.68969568 3.99777175 6.37669473 3 5.0625 C2.443125 4.33160156 1.88625 3.60070312 1.3125 2.84765625 C0 1 0 1 0 0 Z " fill="#65B3D5" transform="translate(39,214)"/>
<path d="M0 0 C0.66 0 1.32 0 2 0 C3.23921302 2.97411124 4.30058404 5.85262818 5 9 C3.0625 8.4375 3.0625 8.4375 1 7 C0.25 3.375 0.25 3.375 0 0 Z " fill="#0677B7" transform="translate(106,190)"/>
<path d="M0 0 C0.99 0.33 1.98 0.66 3 1 C3 1.99 3 2.98 3 4 C3.66 4.33 4.32 4.66 5 5 C4.01 6.32 3.02 7.64 2 9 C1.34 6.03 0.68 3.06 0 0 Z " fill="#48BADC" transform="translate(22,180)"/>
<path d="M0 0 C0.99 0.33 1.98 0.66 3 1 C0.69 3.64 -1.62 6.28 -4 9 C-4.33 8.01 -4.66 7.02 -5 6 C-3.59554165 3.7363436 -1.8032087 1.9791315 0 0 Z " fill="#1261A4" transform="translate(181,164)"/>
<path d="M0 0 C0.33 0 0.66 0 1 0 C1.1953125 6.0546875 1.1953125 6.0546875 1 8 C0.34 8.66 -0.32 9.32 -1 10 C-2.25 3.375 -2.25 3.375 0 0 Z " fill="#C9E8E9" transform="translate(109,96)"/>
<path d="M0 0 C0.66 0 1.32 0 2 0 C0.55049545 3.7910119 -1.15172566 7.3874638 -3 11 C-3.33 11 -3.66 11 -4 11 C-4 9.35 -4 7.7 -4 6 C-3.34 6 -2.68 6 -2 6 C-1.7834375 5.071875 -1.7834375 5.071875 -1.5625 4.125 C-1 2 -1 2 0 0 Z " fill="#24A1C6" transform="translate(109,92)"/>
<path d="M0 0 C3.28220895 1.64110448 3.74570789 4.69322988 5 8 C5 8.99 5 9.98 5 11 C3.76302083 9.50260417 2.52604167 8.00520833 1.2890625 6.5078125 C0.24749008 5.28948839 -0.86660097 4.13339903 -2 3 C-1.34 3 -0.68 3 0 3 C0 2.01 0 1.02 0 0 Z " fill="#0A69AA" transform="translate(234,77)"/>
<path d="M0 0 C0.66 0.33 1.32 0.66 2 1 C0.515 6.445 0.515 6.445 -1 12 C-3 8 -3 8 -3 6 C-2.34 6 -1.68 6 -1 6 C-0.67 4.02 -0.34 2.04 0 0 Z " fill="#56C0DE" transform="translate(126,53)"/>
<path d="M0 0 C1.231394 2.46278801 1.07159196 4.2795055 1 7 C-0.32 7.33 -1.64 7.66 -3 8 C-3.1875 5.125 -3.1875 5.125 -3 2 C-2.01 1.34 -1.02 0.68 0 0 Z " fill="#039ED1" transform="translate(150,51)"/>
<path d="M0 0 C1.98 0 3.96 0 6 0 C4.75 2.5 4.75 2.5 3 5 C1.68 5 0.36 5 -1 5 C-1 4.34 -1 3.68 -1 3 C-0.34 3 0.32 3 1 3 C0.67 2.01 0.34 1.02 0 0 Z " fill="#103588" transform="translate(178,250)"/>
<path d="M0 0 C1 2 1 2 0.25 4.875 C-0.88533421 7.71333554 -2.04083424 9.68462228 -4 12 C-3.45660208 7.43545749 -2.20536179 4.0271824 0 0 Z " fill="#225A8D" transform="translate(163,188)"/>
<path d="M0 0 C0.66 0 1.32 0 2 0 C0.62845496 2.95409701 -0.98863724 5.44008376 -3 8 C-3.33 5.69 -3.66 3.38 -4 1 C-3.01 1 -2.02 1 -1 1 C-0.67 0.67 -0.34 0.34 0 0 Z " fill="#30A5CC" transform="translate(77,139)"/>
<path d="M0 0 C3.465 1.98 3.465 1.98 7 4 C7 4.99 7 5.98 7 7 C5.68 6.34 4.36 5.68 3 5 C3 4.34 3 3.68 3 3 C1.35 3 -0.3 3 -2 3 C-1.34 2.67 -0.68 2.34 0 2 C0 1.34 0 0.68 0 0 Z " fill="#55AED2" transform="translate(197,40)"/>
<path d="M0 0 C4.875 4.625 4.875 4.625 6 8 C4.35 7.67 2.7 7.34 1 7 C0.67 4.69 0.34 2.38 0 0 Z " fill="#2582B7" transform="translate(98,174)"/>
<path d="M0 0 C1.7074998 1.28062485 3.37373596 2.61767557 5 4 C5 4.66 5 5.32 5 6 C5.99 6 6.98 6 8 6 C8 6.66 8 7.32 8 8 C4.11137013 6.73882275 2.10624401 5.54735833 0 2 C0 1.34 0 0.68 0 0 Z " fill="#227FAC" transform="translate(124,145)"/>
<path d="M0 0 C0.99 0.33 1.98 0.66 3 1 C2.67 1.66 2.34 2.32 2 3 C1.01 3 0.02 3 -1 3 C-1.33 4.32 -1.66 5.64 -2 7 C-2.66 5.68 -3.32 4.36 -4 3 C-2.68 2.67 -1.36 2.34 0 2 C0 1.34 0 0.68 0 0 Z " fill="#D3E3EE" transform="translate(79,142)"/>
<path d="M0 0 C0.99 0.33 1.98 0.66 3 1 C2.67 2.32 2.34 3.64 2 5 C0.68 4.67 -0.64 4.34 -2 4 C-2 3.01 -2 2.02 -2 1 C-1.34 0.67 -0.68 0.34 0 0 Z " fill="#05A0D3" transform="translate(83,128)"/>
<path d="M0 0 C0.33 0.66 0.66 1.32 1 2 C1.66 2 2.32 2 3 2 C2.625 3.9375 2.625 3.9375 2 6 C1.01 6.495 1.01 6.495 0 7 C-0.66 5.35 -1.32 3.7 -2 2 C-1.34 2 -0.68 2 0 2 C0 1.34 0 0.68 0 0 Z " fill="#284890" transform="translate(209,232)"/>
<path d="M0 0 C0.99 0 1.98 0 3 0 C4.75 2.3125 4.75 2.3125 6 5 C5.67 5.99 5.34 6.98 5 8 C0 2.25 0 2.25 0 0 Z " fill="#1D70A4" transform="translate(181,124)"/>
<path d="M0 0 C0.66 0.33 1.32 0.66 2 1 C0.35 3.64 -1.3 6.28 -3 9 C-3.33 8.01 -3.66 7.02 -4 6 C-2.84338843 3.79192337 -1.77322566 1.77322566 0 0 Z " fill="#2AA0C8" transform="translate(95,116)"/>
<path d="M0 0 C3.36591866 1.44253657 5.51047079 3.33264727 8 6 C5.21788056 5.62403791 3.4120716 5.32681541 1.1875 3.5625 C0 2 0 2 0 0 Z " fill="#5DABD0" transform="translate(209,49)"/>
<path d="M0 0 C0.5534764 2.07553648 1 3.84365964 1 6 C-0.65 6 -2.3 6 -4 6 C-1.125 1.125 -1.125 1.125 0 0 Z " fill="#0BC2E8" transform="translate(63,49)"/>
<path d="M0 0 C0.66 0.33 1.32 0.66 2 1 C1.67 2.98 1.34 4.96 1 7 C0.34 7 -0.32 7 -1 7 C-1.33 5.02 -1.66 3.04 -2 1 C-1.34 0.67 -0.68 0.34 0 0 Z " fill="#B8BEC4" transform="translate(115,192)"/>
<path d="M0 0 C0.66 0.33 1.32 0.66 2 1 C1.67 2.65 1.34 4.3 1 6 C-0.32 5.34 -1.64 4.68 -3 4 C-2.34 4 -1.68 4 -1 4 C-0.67 2.68 -0.34 1.36 0 0 Z " fill="#244495" transform="translate(243,190)"/>
</svg>
